<svg width="136" height="40" viewBox="0 0 136 40" fill="none" xmlns="http://www.w3.org/2000/svg">
<path d="M9.024 10.2005C9.024 10.4032 8.55467 10.6379 7.616 10.9045C7.70133 12.0139 7.744 12.9579 7.744 13.7365C7.744 15.0805 7.57333 15.7525 7.232 15.7525C7.05067 15.7525 6.90667 15.6405 6.8 15.4165C6.69333 15.1925 6.608 14.8032 6.544 14.2485C6.46933 13.2245 6.38933 12.2219 6.304 11.2405C5.824 11.3685 5.38667 11.4859 4.992 11.5925C4.59733 11.6885 4 11.8485 3.2 12.0725C2.26133 14.5259 1.70667 15.7525 1.536 15.7525C1.36533 15.7525 1.17867 15.6512 0.976 15.4485C0.784 15.2352 0.688 15.0112 0.688 14.7765C0.688 14.6699 0.992 13.9125 1.6 12.5045H1.488C1.27467 12.5045 1.08267 12.4352 0.912 12.2965C0.752 12.1579 0.672 11.9872 0.672 11.7845C0.672 11.5712 1.2 11.2939 2.256 10.9525C2.42667 10.5685 2.56533 10.2219 2.672 9.91254C2.91733 9.30454 3.25867 8.47254 3.696 7.41654C4.13333 6.36054 4.41067 5.68854 4.528 5.40054C4.64533 5.10188 4.848 4.85121 5.136 4.64854C5.43467 4.43521 5.72267 4.32854 6 4.32854C6.33067 4.32854 6.624 4.85654 6.88 5.91254C7.14667 6.96854 7.36 8.27521 7.52 9.83254C7.81867 9.80054 8.08 9.78454 8.304 9.78454C8.784 9.78454 9.024 9.92321 9.024 10.2005ZM3.792 10.5365C4.54933 10.3339 5.34933 10.1632 6.192 10.0245C6 8.20054 5.81333 6.82988 5.632 5.91254C5.152 7.01121 4.53867 8.55254 3.792 10.5365ZM18.7264 5.12854C18.7477 4.66988 18.8544 4.44054 19.0464 4.44054C19.249 4.44054 19.4677 4.56321 19.7024 4.80854C19.937 5.05388 20.0544 5.27254 20.0544 5.46454C20.0544 6.33921 19.9157 7.58188 19.6384 9.19254C19.3717 10.8032 19.009 12.2965 18.5504 13.6725C18.1024 15.0485 17.6757 15.7365 17.2704 15.7365C17.1317 15.7365 16.9717 15.6672 16.7904 15.5285C16.6197 15.3899 16.4864 15.2192 16.3904 15.0165C16.0704 14.2699 15.1264 11.9019 13.5584 7.91254C13.2384 9.14988 12.881 10.5525 12.4864 12.1205C12.1024 13.6779 11.8464 14.6699 11.7184 15.0965C11.5904 15.5232 11.4784 15.7365 11.3824 15.7365C11.2437 15.7365 11.073 15.6192 10.8704 15.3845C10.6784 15.1392 10.5824 14.8885 10.5824 14.6325C10.5824 14.3765 10.929 12.8779 11.6224 10.1365C12.3157 7.38454 12.673 5.66721 12.6944 4.98454C12.6944 4.64321 12.785 4.47254 12.9664 4.47254C13.0837 4.47254 13.2437 4.57388 13.4464 4.77654C13.6597 4.96854 13.8144 5.18188 13.9104 5.41654C15.6277 9.87521 16.7157 12.6059 17.1744 13.6085C17.8677 11.7739 18.3317 9.58188 18.5664 7.03254C18.673 5.85921 18.7264 5.22454 18.7264 5.12854ZM29.5865 10.2005C29.5865 10.4032 29.1172 10.6379 28.1785 10.9045C28.2638 12.0139 28.3065 12.9579 28.3065 13.7365C28.3065 15.0805 28.1358 15.7525 27.7945 15.7525C27.6132 15.7525 27.4692 15.6405 27.3625 15.4165C27.2558 15.1925 27.1705 14.8032 27.1065 14.2485C27.0318 13.2245 26.9518 12.2219 26.8665 11.2405C26.3865 11.3685 25.9492 11.4859 25.5545 11.5925C25.1598 11.6885 24.5625 11.8485 23.7625 12.0725C22.8238 14.5259 22.2692 15.7525 22.0985 15.7525C21.9278 15.7525 21.7412 15.6512 21.5385 15.4485C21.3465 15.2352 21.2505 15.0112 21.2505 14.7765C21.2505 14.6699 21.5545 13.9125 22.1625 12.5045H22.0505C21.8372 12.5045 21.6452 12.4352 21.4745 12.2965C21.3145 12.1579 21.2345 11.9872 21.2345 11.7845C21.2345 11.5712 21.7625 11.2939 22.8185 10.9525C22.9892 10.5685 23.1278 10.2219 23.2345 9.91254C23.4798 9.30454 23.8212 8.47254 24.2585 7.41654C24.6958 6.36054 24.9732 5.68854 25.0905 5.40054C25.2078 5.10188 25.4105 4.85121 25.6985 4.64854C25.9972 4.43521 26.2852 4.32854 26.5625 4.32854C26.8932 4.32854 27.1865 4.85654 27.4425 5.91254C27.7092 6.96854 27.9225 8.27521 28.0825 9.83254C28.3812 9.80054 28.6425 9.78454 28.8665 9.78454C29.3465 9.78454 29.5865 9.92321 29.5865 10.2005ZM24.3545 10.5365C25.1118 10.3339 25.9118 10.1632 26.7545 10.0245C26.5625 8.20054 26.3758 6.82988 26.1945 5.91254C25.7145 7.01121 25.1012 8.55254 24.3545 10.5365ZM33.4809 4.88854C33.4809 4.71788 33.5022 4.59521 33.5449 4.52054C33.5982 4.44588 33.6995 4.40854 33.8489 4.40854C34.0089 4.40854 34.2062 4.54188 34.4409 4.80854C34.6755 5.07521 34.7929 5.35788 34.7929 5.65654C34.7929 6.40321 34.3342 8.29121 33.4169 11.3205C32.9582 12.7925 32.7289 13.6725 32.7289 13.9605C32.7289 14.2485 32.8675 14.3925 33.1449 14.3925C34.3502 14.3925 35.6729 14.1952 37.1129 13.8005C37.5715 13.6725 37.8435 13.6085 37.9289 13.6085C38.0249 13.6085 38.0889 13.6299 38.1209 13.6725C38.1529 13.7045 38.1689 13.7739 38.1689 13.8805C38.1689 14.3285 37.6195 14.7499 36.5209 15.1445C35.4329 15.5392 34.3235 15.7365 33.1929 15.7365C32.6809 15.7365 32.2329 15.5872 31.8489 15.2885C31.4755 14.9899 31.2889 14.6379 31.2889 14.2325C31.2889 13.8165 31.6515 12.3392 32.3769 9.80054C33.1129 7.26188 33.4809 5.62454 33.4809 4.88854ZM44.2633 10.0405C44.4553 10.0405 44.8019 9.58721 45.3033 8.68054C45.8153 7.76321 46.3326 6.84588 46.8553 5.92854C47.3886 5.01121 47.7673 4.55254 47.9913 4.55254C48.2153 4.55254 48.3966 4.63254 48.5353 4.79254C48.6739 4.95254 48.7433 5.14454 48.7433 5.36854C48.7433 5.59254 48.5406 6.04054 48.1353 6.71254C47.7299 7.38454 47.1859 8.27521 46.5033 9.38454C45.8206 10.4832 45.1379 11.6779 44.4553 12.9685C43.7726 14.2592 43.3033 15.0645 43.0473 15.3845C42.7913 15.7045 42.5833 15.8645 42.4233 15.8645C42.1886 15.8645 42.0713 15.6725 42.0713 15.2885C42.0713 14.9899 42.2206 14.5365 42.5193 13.9285C42.6153 13.7472 42.6899 13.5979 42.7433 13.4805C42.7966 13.3525 42.8819 13.1765 42.9993 12.9525C43.1166 12.7285 43.2073 12.5579 43.2713 12.4405C43.3353 12.3125 43.4313 12.1205 43.5593 11.8645C43.6979 11.5979 43.7993 11.4059 43.8633 11.2885C43.2339 11.1285 42.6526 10.7339 42.1193 10.1045C41.5966 9.46454 41.1966 8.75521 40.9193 7.97654C40.6419 7.18721 40.5033 6.41921 40.5033 5.67254C40.5033 4.92588 40.7166 4.55254 41.1432 4.55254C41.3139 4.55254 41.4473 4.71788 41.5433 5.04854C41.6499 5.37921 41.7779 5.85388 41.9273 6.47254C42.0766 7.09121 42.2739 7.66188 42.5193 8.18454C42.7646 8.69654 43.0579 9.13388 43.3993 9.49654C43.7406 9.85921 44.0286 10.0405 44.2633 10.0405ZM55.7064 5.12854C56.1224 5.26721 56.4797 5.51788 56.7784 5.88054C57.077 6.24321 57.2264 6.59521 57.2264 6.93654C57.2264 7.27788 57.0024 7.73654 56.5544 8.31254C56.117 8.87788 55.5784 9.44321 54.9384 10.0085C54.309 10.5632 53.6744 11.1072 53.0344 11.6405C52.3944 12.1739 51.8504 12.6485 51.4024 13.0645C50.965 13.4805 50.7464 13.7525 50.7464 13.8805C50.7464 14.0085 50.7837 14.1099 50.8584 14.1845C50.933 14.2592 51.0344 14.2965 51.1624 14.2965C51.7277 14.2965 52.629 14.2112 53.8664 14.0405C55.1144 13.8592 55.9197 13.7685 56.2824 13.7685C56.645 13.7685 56.8264 13.8965 56.8264 14.1525C56.8264 14.4939 56.1597 14.8352 54.8264 15.1765C53.493 15.5072 52.149 15.6725 50.7944 15.6725C50.389 15.6725 50.0157 15.4912 49.6744 15.1285C49.3437 14.7552 49.1784 14.3925 49.1784 14.0405C49.1784 13.6779 49.4077 13.2299 49.8664 12.6965C50.3357 12.1525 50.8957 11.6032 51.5464 11.0485C52.2077 10.4939 52.8637 9.94454 53.5144 9.40054C55.1037 8.08854 55.8984 7.20321 55.8984 6.74454C55.8984 6.54188 55.653 6.37654 55.1624 6.24854C54.6824 6.10988 54.165 6.04054 53.6104 6.04054C53.0664 6.04054 52.5597 6.08321 52.0904 6.16854C51.6317 6.24321 51.349 6.28054 51.2424 6.28054C51.0077 6.28054 50.7784 6.15788 50.5544 5.91254C50.3304 5.66721 50.2184 5.44321 50.2184 5.24054C50.197 5.04854 50.549 4.88321 51.2744 4.74454C51.6477 4.68054 52.0797 4.64854 52.5704 4.64854C53.701 4.64854 54.7464 4.80854 55.7064 5.12854ZM61.4843 10.6805C60.9083 12.5045 60.6203 13.6085 60.6203 13.9925C60.6203 14.1205 60.6576 14.2272 60.7323 14.3125C60.8176 14.3872 60.9243 14.4245 61.0523 14.4245C62.2789 14.4245 63.6336 14.2272 65.1163 13.8325C65.5963 13.7045 65.8736 13.6405 65.9483 13.6405C66.1083 13.6405 66.1883 13.7525 66.1883 13.9765C66.1883 14.3605 65.5963 14.7552 64.4123 15.1605C63.2389 15.5659 62.1029 15.7685 61.0043 15.7685C60.5136 15.7685 60.0816 15.6245 59.7083 15.3365C59.3456 15.0485 59.1643 14.6859 59.1643 14.2485C59.1643 13.8112 59.3189 13.0645 59.6283 12.0085C59.9483 10.9525 60.2683 9.82721 60.5883 8.63254C60.9083 7.43788 61.0683 6.42988 61.0683 5.60854C61.0683 5.49121 61.0896 5.36854 61.1323 5.24054C61.3136 4.84588 62.4763 4.64854 64.6203 4.64854C66.7643 4.64854 67.8363 4.80321 67.8363 5.11254C67.8363 5.32588 67.6069 5.46988 67.1483 5.54454C66.7643 5.61921 66.2523 5.68854 65.6123 5.75254C64.9829 5.80588 64.5403 5.84854 64.2843 5.88054C64.0283 5.90188 63.4096 5.99788 62.4283 6.16854V6.21654C62.4283 6.94188 62.2309 8.03521 61.8363 9.49654C61.9003 9.50721 62.1136 9.51254 62.4763 9.51254C62.8496 9.51254 63.3456 9.48588 63.9643 9.43254C64.5829 9.37921 65.0469 9.35254 65.3563 9.35254C65.6763 9.35254 65.8363 9.42721 65.8363 9.57654C65.8363 9.94988 65.3989 10.2272 64.5243 10.4085C63.6496 10.5899 62.6363 10.6805 61.4843 10.6805ZM82.9615 10.2005C82.9615 10.4032 82.4922 10.6379 81.5535 10.9045C81.6388 12.0139 81.6815 12.9579 81.6815 13.7365C81.6815 15.0805 81.5108 15.7525 81.1695 15.7525C80.9882 15.7525 80.8442 15.6405 80.7375 15.4165C80.6308 15.1925 80.5455 14.8032 80.4815 14.2485C80.4068 13.2245 80.3268 12.2219 80.2415 11.2405C79.7615 11.3685 79.3242 11.4859 78.9295 11.5925C78.5348 11.6885 77.9375 11.8485 77.1375 12.0725C76.1988 14.5259 75.6442 15.7525 75.4735 15.7525C75.3028 15.7525 75.1162 15.6512 74.9135 15.4485C74.7215 15.2352 74.6255 15.0112 74.6255 14.7765C74.6255 14.6699 74.9295 13.9125 75.5375 12.5045H75.4255C75.2122 12.5045 75.0202 12.4352 74.8495 12.2965C74.6895 12.1579 74.6095 11.9872 74.6095 11.7845C74.6095 11.5712 75.1375 11.2939 76.1935 10.9525C76.3642 10.5685 76.5028 10.2219 76.6095 9.91254C76.8548 9.30454 77.1962 8.47254 77.6335 7.41654C78.0708 6.36054 78.3482 5.68854 78.4655 5.40054C78.5828 5.10188 78.7855 4.85121 79.0735 4.64854C79.3722 4.43521 79.6602 4.32854 79.9375 4.32854C80.2682 4.32854 80.5615 4.85654 80.8175 5.91254C81.0842 6.96854 81.2975 8.27521 81.4575 9.83254C81.7562 9.80054 82.0175 9.78454 82.2415 9.78454C82.7215 9.78454 82.9615 9.92321 82.9615 10.2005ZM77.7295 10.5365C78.4868 10.3339 79.2868 10.1632 80.1295 10.0245C79.9375 8.20054 79.7508 6.82988 79.5695 5.91254C79.0895 7.01121 78.4762 8.55254 77.7295 10.5365ZM85.5759 15.7045C85.4479 15.7045 85.2772 15.5765 85.0639 15.3205C84.8612 15.0645 84.7599 14.8299 84.7599 14.6165C84.7599 14.4032 85.0745 12.9152 85.7039 10.1525C86.3439 7.37921 86.6692 5.66188 86.6799 5.00054C86.6799 4.81921 86.7012 4.69654 86.7439 4.63254C86.7972 4.55788 86.8985 4.52054 87.0479 4.52054C87.2079 4.52054 87.4105 4.68588 87.6559 5.01654C87.9119 5.34721 88.0399 5.70454 88.0399 6.08854C88.0399 6.46188 87.6559 8.21121 86.8879 11.3365C86.8132 11.6245 86.7119 12.0405 86.5839 12.5845C86.4559 13.1179 86.3545 13.5285 86.2799 13.8165C86.2052 14.1045 86.1252 14.4192 86.0399 14.7605C85.8585 15.3899 85.7039 15.7045 85.5759 15.7045Z" fill="url(#paint0_linear_1_1599)"/>
<path fill-rule="evenodd" clip-rule="evenodd" d="M132.615 30.7526C131.221 30.6584 130.01 30.3573 128.744 29.7389C128.213 29.5037 128.627 28.6952 129.141 28.9493C130.077 29.4094 130.984 29.6754 131.988 29.7931C131.97 29.6874 131.94 29.5823 131.898 29.478C131.873 29.4558 131.841 29.428 131.804 29.3946C128.596 25.5095 123.817 22.1463 118.691 21.5998C118.584 21.5944 118.483 21.5827 118.387 21.5647C118.864 22.6935 119.166 23.8685 119.149 25.0626C119.125 27.3256 117.665 29.6928 115.283 30.0675C113.238 30.4042 111.524 28.8512 111.12 26.881C110.62 24.4892 112.238 22.3619 114.332 21.3633C115.267 20.9154 116.25 20.6782 117.26 20.5996C115.504 17.1615 112.072 14.2871 108.885 12.8049C104.412 10.6876 99.4374 10.5772 94.5941 10.5835C94.3979 10.5775 94.3808 10.2936 94.5749 10.2641C102.301 9.92418 110.325 10.9909 115.615 17.2261C116.457 18.2082 117.273 19.3345 117.918 20.5779C122.544 20.5134 127.477 23.7783 130.771 27.0348C130.421 26.1418 130.093 25.2355 129.789 24.3159C129.619 23.8631 130.31 23.5011 130.567 23.9308C131.666 25.9126 132.482 27.947 133.026 30.1759C133.076 30.4222 132.937 30.7689 132.615 30.7526ZM117.691 21.5531C114.971 21.6276 111.727 23.0515 111.879 26.1765C111.993 28.6627 114.54 30.1478 116.624 28.6692C118.006 27.6778 118.514 26.0446 118.38 24.4143C118.304 23.4395 118.068 22.492 117.691 21.5531Z" fill="url(#paint1_linear_1_1599)"/>
<defs>
<linearGradient id="paint0_linear_1_1599" x1="6.63102e-07" y1="12.0085" x2="89" y2="12.0085" gradientUnits="userSpaceOnUse">
<stop stop-color="#2253FF"/>
<stop offset="1" stop-color="#43D2FF"/>
</linearGradient>
<linearGradient id="paint1_linear_1_1599" x1="98.3071" y1="5.99476" x2="129.911" y2="34.0137" gradientUnits="userSpaceOnUse">
<stop stop-color="#2253FF"/>
<stop offset="1" stop-color="#43D2FF"/>
</linearGradient>
</defs>
</svg>
