<svg width="32" height="33" viewBox="0 0 32 33" fill="none" xmlns="http://www.w3.org/2000/svg">
<g clip-path="url(#clip0_1_1161)">
<path d="M23.6562 32.0168H8.34224C5.33506 32.0168 2.9535 29.4759 3.14789 26.4751L4.1675 10.7355C4.25346 9.40808 5.35514 8.37549 6.68527 8.37549H25.3132C26.6434 8.37549 27.745 9.40808 27.831 10.7355L28.8506 26.4751C29.045 29.4759 26.6634 32.0168 23.6562 32.0168Z" fill="url(#paint0_linear_1_1161)"/>
<path d="M27.8306 10.7355C27.7447 9.40808 26.643 8.37549 25.3129 8.37549H8.63678V13.1097L26.6188 31.0917C28.0645 30.0884 28.9732 28.374 28.8502 26.4751L27.8306 10.7355Z" fill="url(#paint1_linear_1_1161)"/>
<path d="M27.8317 10.7355C27.7458 9.40808 26.6441 8.37549 25.314 8.37549H16.3555V32.0168H23.6569C26.6641 32.0168 29.0457 29.476 28.8513 26.4751L27.8317 10.7355Z" fill="url(#paint2_linear_1_1161)"/>
<path d="M28.41 19.6915L27.8299 10.7355C27.7439 9.40808 26.6422 8.37549 25.3121 8.37549H21.8282V13.1097L28.41 19.6915Z" fill="url(#paint3_linear_1_1161)"/>
<path d="M9.38708 14.1564C10.3667 14.1564 11.1608 13.3622 11.1608 12.3826C11.1608 11.403 10.3667 10.6089 9.38708 10.6089C8.40747 10.6089 7.61334 11.403 7.61334 12.3826C7.61334 13.3622 8.40747 14.1564 9.38708 14.1564Z" fill="url(#paint4_linear_1_1161)"/>
<path d="M22.6136 14.1564C23.5933 14.1564 24.3874 13.3622 24.3874 12.3826C24.3874 11.403 23.5933 10.6089 22.6136 10.6089C21.634 10.6089 20.8399 11.403 20.8399 12.3826C20.8399 13.3622 21.634 14.1564 22.6136 14.1564Z" fill="url(#paint5_linear_1_1161)"/>
<path d="M22.6135 13.4226C21.9838 13.4226 21.4732 12.9121 21.4732 12.2823V7.77082C21.4732 4.7529 19.0179 2.29756 15.9999 2.29756C12.982 2.29756 10.5267 4.75284 10.5267 7.77082V12.2823C10.5267 12.912 10.0162 13.4226 9.38642 13.4226C8.75665 13.4226 8.24615 12.9121 8.24615 12.2823V7.77082C8.24622 3.49536 11.7245 0.0170898 15.9999 0.0170898C20.2754 0.0170898 23.7537 3.49536 23.7537 7.77082V12.2823C23.7537 12.9121 23.2432 13.4226 22.6135 13.4226Z" fill="url(#paint6_linear_1_1161)"/>
<path d="M23.2063 4.91162H20.6641C21.1764 5.74437 21.4724 6.72382 21.4724 7.77123V12.2827C21.4724 12.9124 21.9829 13.423 22.6127 13.423C23.2424 13.423 23.7529 12.9125 23.7529 12.2827V7.77123C23.7529 6.76179 23.5588 5.79689 23.2063 4.91162Z" fill="url(#paint7_linear_1_1161)"/>
<path d="M8.24609 7.77123V12.2827C8.24609 12.9124 8.75659 13.423 9.38636 13.423C10.0161 13.423 10.5266 12.9125 10.5266 12.2827V7.77123C10.5266 6.72382 10.8226 5.74431 11.335 4.91162H8.79273C8.44016 5.79689 8.24609 6.76179 8.24609 7.77123Z" fill="url(#paint8_linear_1_1161)"/>
<path d="M15.9992 0.0170898C15.7452 0.0170898 15.4941 0.0297644 15.2463 0.053733V2.34964C15.4925 2.31563 15.7438 2.29762 15.9992 2.29762C19.0172 2.29762 21.4725 4.7529 21.4725 7.77088V12.2824C21.4725 12.9121 21.983 13.4226 22.6127 13.4226C23.2425 13.4226 23.753 12.9121 23.753 12.2824V7.77088C23.7529 3.49536 20.2747 0.0170898 15.9992 0.0170898Z" fill="url(#paint9_linear_1_1161)"/>
<path d="M3.14783 26.4759C2.95344 29.4767 5.33506 32.0176 8.34224 32.0176H23.6562C26.6634 32.0176 29.045 29.4767 28.8505 26.4759L28.337 18.5483H3.6614L3.14783 26.4759Z" fill="url(#paint10_linear_1_1161)"/>
<path d="M28.8496 26.4749L28.6474 23.3534L26.1002 20.8062L5.45703 29.7369L7.69697 31.9769C7.90798 32.0028 8.12288 32.0166 8.34117 32.0166H23.6551C26.6624 32.0166 29.044 29.4758 28.8496 26.4749Z" fill="url(#paint11_linear_1_1161)"/>
<path d="M12.1326 17.4019H10.4976C9.76678 17.4019 9.13368 17.9088 8.97387 18.6219L8.67188 19.9694H13.9583L13.6563 18.6219C13.4965 17.9088 12.8634 17.4019 12.1326 17.4019Z" fill="url(#paint12_linear_1_1161)"/>
<path d="M23.0274 18.6219C22.8676 17.9088 22.2345 17.4019 21.5037 17.4019H19.8687C19.1379 17.4019 18.5048 17.9088 18.345 18.6219L18.043 19.9694H23.3294L23.0274 18.6219Z" fill="url(#paint13_linear_1_1161)"/>
<path d="M28.0231 24.7694L28.1082 25.3556C28.5491 28.3931 26.1936 31.1152 23.1243 31.1152C21.6271 31.1152 20.2075 30.449 19.2507 29.2973C17.5611 27.2638 14.4401 27.2638 12.7506 29.2973C11.7938 30.449 10.3742 31.1152 8.87696 31.1152C5.80765 31.1152 3.45214 28.3931 3.89305 25.3556L3.97813 24.7694C4.50519 21.1383 7.61798 18.4448 11.2871 18.4448H20.7143C24.3833 18.4448 27.4961 21.1383 28.0231 24.7694Z" fill="url(#paint14_linear_1_1161)"/>
<path d="M17.6163 22.9501H14.385C13.8045 22.9501 13.334 22.4796 13.334 21.8991C13.334 21.3187 13.8045 20.8481 14.385 20.8481H17.6163C18.1968 20.8481 18.6673 21.3187 18.6673 21.8991C18.6673 22.4796 18.1968 22.9501 17.6163 22.9501Z" fill="url(#paint15_linear_1_1161)"/>
<path d="M3.97813 24.7694L3.89305 25.3557C3.45214 28.3932 5.80765 31.1152 8.87696 31.1152C10.3742 31.1152 11.7938 30.4491 12.7506 29.2974C14.4401 27.2638 17.5611 27.2638 19.2507 29.2974C20.2075 30.449 21.6271 31.1152 23.1243 31.1152C26.1936 31.1152 28.5491 28.3931 28.1082 25.3557L28.0231 24.7694C27.9282 24.1156 27.7491 23.4924 27.4983 22.9097H4.50293C4.2522 23.4924 4.073 24.1156 3.97813 24.7694Z" fill="url(#paint16_linear_1_1161)"/>
<path d="M15.7536 27.7795L14.459 26.4849V28.0615C14.8755 27.8991 15.3129 27.8051 15.7536 27.7795Z" fill="url(#paint17_linear_1_1161)"/>
<path d="M9.26049 22.2397L5.77124 25.729L10.7826 30.7404C11.5381 30.4315 12.2165 29.9401 12.7506 29.2973C13.3424 28.5849 14.11 28.1225 14.93 27.9092L9.26049 22.2397Z" fill="url(#paint18_linear_1_1161)"/>
<path d="M14.9296 27.9095C14.5195 28.0158 14.1227 28.1851 13.754 28.4164C13.3858 28.6477 13.0463 28.9414 12.7502 29.2977C12.216 29.9406 11.5379 30.4318 10.782 30.7408L7.52344 27.4817L11.0129 23.9927L14.9296 27.9095Z" fill="url(#paint19_linear_1_1161)"/>
<path d="M28.0228 24.7694C27.4958 21.1383 24.383 18.4448 20.7139 18.4448H15.9844V27.7724C17.1923 27.7679 18.4018 28.2761 19.2503 29.2973C20.2071 30.449 21.6267 31.1152 23.124 31.1152C26.1933 31.1152 28.5488 28.3931 28.1079 25.3556L28.0228 24.7694Z" fill="url(#paint20_linear_1_1161)"/>
<path d="M25.5905 23.2967C25.5296 23.2903 25.4694 23.2875 25.41 23.288C25.1948 23.2898 25.0191 23.1141 25.021 22.899C25.0215 22.8395 25.0187 22.7793 25.0122 22.7184C24.9332 21.9734 24.3168 21.3844 23.5691 21.3385C22.6687 21.2831 21.9212 21.997 21.9212 22.8854V22.8905C21.9219 23.1089 21.7506 23.2899 21.5322 23.288C21.4727 23.2875 21.4125 23.2904 21.3516 23.2969C20.6065 23.3759 20.0176 23.9924 19.9718 24.7402C19.9165 25.6405 20.6303 26.3878 21.5187 26.3878H21.5238C21.7423 26.3871 21.9232 26.5585 21.9213 26.7769C21.9208 26.8363 21.9236 26.8964 21.9301 26.9573C22.009 27.7023 22.6254 28.2913 23.3732 28.3373C24.2736 28.3927 25.021 27.6789 25.021 26.7904C25.021 26.7887 25.021 26.7871 25.021 26.7854C25.0203 26.5636 25.1968 26.3871 25.4187 26.3877H25.4237C26.3121 26.3877 27.0259 25.6402 26.9706 24.7398C26.9245 23.9921 26.3355 23.3757 25.5905 23.2967Z" fill="url(#paint21_linear_1_1161)"/>
<path d="M21.5179 25.8859C22.0973 25.8859 22.5671 25.4162 22.5671 24.8368C22.5671 24.2573 22.0973 23.7876 21.5179 23.7876C20.9385 23.7876 20.4688 24.2573 20.4688 24.8368C20.4688 25.4162 20.9385 25.8859 21.5179 25.8859Z" fill="url(#paint22_linear_1_1161)"/>
<path d="M20.4688 24.8363C20.4688 25.4158 20.9385 25.8855 21.5179 25.8855C22.0974 25.8855 22.5671 25.4158 22.5671 24.8363C22.5671 24.7108 22.545 24.5906 22.5046 24.479H20.5312C20.4908 24.5906 20.4688 24.7108 20.4688 24.8363Z" fill="url(#paint23_linear_1_1161)"/>
<path d="M20.7769 25.5785C21.1866 25.9882 21.8509 25.9882 22.2606 25.5785C22.6703 25.1687 22.6703 24.5045 22.2606 24.0947C22.1719 24.006 22.0712 23.9366 21.9637 23.8862L20.5684 25.2816C20.6187 25.389 20.6881 25.4897 20.7769 25.5785Z" fill="url(#paint24_linear_1_1161)"/>
<path d="M25.4242 25.8859C26.0036 25.8859 26.4733 25.4162 26.4733 24.8368C26.4733 24.2573 26.0036 23.7876 25.4242 23.7876C24.8447 23.7876 24.375 24.2573 24.375 24.8368C24.375 25.4162 24.8447 25.8859 25.4242 25.8859Z" fill="url(#paint25_linear_1_1161)"/>
<path d="M24.375 24.8363C24.375 25.4158 24.8447 25.8855 25.4242 25.8855C26.0036 25.8855 26.4733 25.4158 26.4733 24.8363C26.4733 24.7108 26.4512 24.5906 26.4108 24.479H24.4375C24.3971 24.5906 24.375 24.7108 24.375 24.8363Z" fill="url(#paint26_linear_1_1161)"/>
<path d="M24.6831 25.5785C25.0928 25.9882 25.7571 25.9882 26.1668 25.5785C26.5766 25.1687 26.5766 24.5045 26.1668 24.0947C26.0781 24.006 25.9774 23.9366 25.8699 23.8862L24.4746 25.2816C24.5249 25.389 24.5944 25.4897 24.6831 25.5785Z" fill="url(#paint27_linear_1_1161)"/>
<path d="M23.471 23.9338C24.0505 23.9338 24.5202 23.464 24.5202 22.8846C24.5202 22.3052 24.0505 21.8354 23.471 21.8354C22.8916 21.8354 22.4219 22.3052 22.4219 22.8846C22.4219 23.464 22.8916 23.9338 23.471 23.9338Z" fill="url(#paint28_linear_1_1161)"/>
<path d="M22.4219 22.8842C22.4219 23.4636 22.8916 23.9334 23.471 23.9334C24.0505 23.9334 24.5202 23.4636 24.5202 22.8842C24.5202 22.7587 24.4981 22.6384 24.4577 22.5269H22.4844C22.444 22.6384 22.4219 22.7587 22.4219 22.8842Z" fill="url(#paint29_linear_1_1161)"/>
<path d="M22.73 23.6263C23.1397 24.036 23.804 24.036 24.2137 23.6263C24.6234 23.2166 24.6234 22.5523 24.2137 22.1426C24.125 22.0539 24.0243 21.9844 23.9168 21.9341L22.5215 23.3294C22.5719 23.4368 22.6413 23.5375 22.73 23.6263Z" fill="url(#paint30_linear_1_1161)"/>
<path d="M23.471 27.839C24.0505 27.839 24.5202 27.3693 24.5202 26.7899C24.5202 26.2104 24.0505 25.7407 23.471 25.7407C22.8916 25.7407 22.4219 26.2104 22.4219 26.7899C22.4219 27.3693 22.8916 27.839 23.471 27.839Z" fill="url(#paint31_linear_1_1161)"/>
<path d="M22.4219 26.7895C22.4219 27.3689 22.8916 27.8386 23.471 27.8386C24.0505 27.8386 24.5202 27.3689 24.5202 26.7895C24.5202 26.664 24.4981 26.5437 24.4577 26.4321H22.4844C22.444 26.5436 22.4219 26.664 22.4219 26.7895Z" fill="url(#paint32_linear_1_1161)"/>
<path d="M22.73 27.5316C23.1397 27.9413 23.804 27.9413 24.2137 27.5316C24.6234 27.1219 24.6234 26.4576 24.2137 26.0479C24.125 25.9591 24.0243 25.8897 23.9168 25.8394L22.5215 27.2347C22.5719 27.3421 22.6413 27.4428 22.73 27.5316Z" fill="url(#paint33_linear_1_1161)"/>
<path d="M19.937 26.4849H18.719V28.7613C18.908 28.9207 19.0862 29.0992 19.2508 29.2972C20.2076 30.4488 21.6272 31.115 23.1244 31.115C23.5679 31.115 23.9963 31.0579 24.4036 30.9515L19.937 26.4849Z" fill="url(#paint34_linear_1_1161)"/>
<path d="M13.2615 29.3747C14.1965 29.3747 14.9545 28.6168 14.9545 27.6818C14.9545 26.7467 14.1965 25.9888 13.2615 25.9888C12.3265 25.9888 11.5685 26.7467 11.5685 27.6818C11.5685 28.6168 12.3265 29.3747 13.2615 29.3747Z" fill="url(#paint35_linear_1_1161)"/>
<path d="M11.5685 27.6816C11.5685 28.6166 12.3264 29.3746 13.2615 29.3746C14.1965 29.3746 14.9545 28.6166 14.9545 27.6816C14.9545 27.4791 14.9188 27.285 14.8536 27.105H11.6694C11.6042 27.285 11.5685 27.4791 11.5685 27.6816Z" fill="url(#paint36_linear_1_1161)"/>
<path d="M12.0631 28.8786C12.7242 29.5397 13.7961 29.5397 14.4573 28.8786C15.1184 28.2174 15.1184 27.1455 14.4573 26.4843C14.3141 26.3411 14.1516 26.2291 13.9782 26.1479L11.7267 28.3995C11.8078 28.5729 11.9199 28.7354 12.0631 28.8786Z" fill="url(#paint37_linear_1_1161)"/>
<path d="M18.7399 29.3747C19.6749 29.3747 20.4329 28.6168 20.4329 27.6818C20.4329 26.7467 19.6749 25.9888 18.7399 25.9888C17.8049 25.9888 17.0469 26.7467 17.0469 27.6818C17.0469 28.6168 17.8049 29.3747 18.7399 29.3747Z" fill="url(#paint38_linear_1_1161)"/>
<path d="M17.0469 27.6816C17.0469 28.6166 17.8048 29.3746 18.7399 29.3746C19.6749 29.3746 20.4329 28.6166 20.4329 27.6816C20.4329 27.4791 20.3971 27.285 20.332 27.105H17.1478C17.0826 27.285 17.0469 27.4791 17.0469 27.6816Z" fill="url(#paint39_linear_1_1161)"/>
<path d="M17.5434 28.8786C18.2046 29.5397 19.2765 29.5397 19.9376 28.8786C20.5988 28.2174 20.5988 27.1455 19.9376 26.4843C19.7944 26.3411 19.6319 26.2291 19.4586 26.1479L17.207 28.3995C17.2882 28.5729 17.4002 28.7354 17.5434 28.8786Z" fill="url(#paint40_linear_1_1161)"/>
<path d="M10.5083 23.7594H9.92264C9.65823 23.7594 9.44389 23.545 9.44389 23.2806V22.6949C9.44389 22.3103 9.13211 21.9985 8.74749 21.9985H7.98457C7.59994 21.9985 7.28816 22.3103 7.28816 22.6949V23.2806C7.28816 23.545 7.07382 23.7594 6.80941 23.7594H6.22375C5.83912 23.7594 5.52734 24.0711 5.52734 24.4558V25.2187C5.52734 25.6033 5.83912 25.9151 6.22375 25.9151H6.80941C7.07382 25.9151 7.28816 26.1294 7.28816 26.3938V26.9795C7.28816 27.3641 7.59994 27.6759 7.98457 27.6759H8.74749C9.13211 27.6759 9.44389 27.3641 9.44389 26.9795V26.3938C9.44389 26.1294 9.65823 25.9151 9.92264 25.9151H10.5083C10.8929 25.9151 11.2047 25.6033 11.2047 25.2187V24.4558C11.2048 24.0712 10.8929 23.7594 10.5083 23.7594Z" fill="url(#paint41_linear_1_1161)"/>
<path d="M8.21704 22.5937L7.62761 23.4869C7.54893 23.6061 7.63445 23.7649 7.77726 23.7649H8.95611C9.09898 23.7649 9.18444 23.6061 9.10576 23.4869L8.51633 22.5937C8.44549 22.4863 8.28794 22.4863 8.21704 22.5937Z" fill="url(#paint42_linear_1_1161)"/>
<path d="M8.21704 27.0799L7.62761 26.1868C7.54893 26.0676 7.63445 25.9087 7.77726 25.9087H8.95611C9.09898 25.9087 9.18444 26.0676 9.10576 26.1868L8.51633 27.0799C8.44549 27.1873 8.28794 27.1873 8.21704 27.0799Z" fill="url(#paint43_linear_1_1161)"/>
<path d="M10.6087 24.6873L9.71559 24.0978C9.59637 24.0191 9.4375 24.1047 9.4375 24.2475V25.4263C9.4375 25.5692 9.59637 25.6547 9.71559 25.576L10.6087 24.9865C10.7161 24.9157 10.7161 24.7581 10.6087 24.6873Z" fill="url(#paint44_linear_1_1161)"/>
<path d="M6.12349 24.6873L7.0166 24.0978C7.13582 24.0191 7.29469 24.1047 7.29469 24.2475V25.4263C7.29469 25.5692 7.13582 25.6547 7.0166 25.576L6.12349 24.9865C6.01613 24.9157 6.01613 24.7581 6.12349 24.6873Z" fill="url(#paint45_linear_1_1161)"/>
<path d="M5.52734 25.0571V25.2189C5.52734 25.6036 5.83912 25.9154 6.22375 25.9154H6.80941C7.07382 25.9154 7.28816 26.1297 7.28816 26.3941V26.9798C7.28816 27.3644 7.59994 27.6762 7.98457 27.6762H8.74749C9.13211 27.6762 9.44389 27.3644 9.44389 26.9798V26.3941C9.44389 26.1297 9.65823 25.9154 9.92264 25.9154H10.5083C10.8929 25.9154 11.2047 25.6036 11.2047 25.2189V25.0571H5.52734Z" fill="url(#paint46_linear_1_1161)"/>
<path d="M8.58594 27.6759H8.74776C9.13239 27.6759 9.44417 27.3641 9.44417 26.9795V26.3938C9.44417 26.1294 9.6585 25.9151 9.92291 25.9151H10.5086C10.8932 25.9151 11.205 25.6033 11.205 25.2187V24.4558C11.205 24.0711 10.8932 23.7594 10.5086 23.7594H9.92291C9.6585 23.7594 9.44417 23.545 9.44417 23.2806V22.6949C9.44417 22.3103 9.13239 21.9985 8.74776 21.9985H8.58594V27.6759Z" fill="url(#paint47_linear_1_1161)"/>
</g>
<defs>
<linearGradient id="paint0_linear_1_1161" x1="7.08132" y1="11.0053" x2="26.658" y2="30.5819" gradientUnits="userSpaceOnUse">
<stop stop-color="#BBEC6C"/>
<stop offset="1" stop-color="#78A91F"/>
</linearGradient>
<linearGradient id="paint1_linear_1_1161" x1="15.5916" y1="15.9277" x2="5.89752" y2="12.4454" gradientUnits="userSpaceOnUse">
<stop stop-color="#026841" stop-opacity="0"/>
<stop offset="0.3243" stop-color="#046842" stop-opacity="0.324"/>
<stop offset="0.5509" stop-color="#0E6546" stop-opacity="0.551"/>
<stop offset="0.7476" stop-color="#1D614C" stop-opacity="0.748"/>
<stop offset="0.9263" stop-color="#335C54" stop-opacity="0.926"/>
<stop offset="1" stop-color="#3E5959"/>
</linearGradient>
<linearGradient id="paint2_linear_1_1161" x1="24.4392" y1="19.7324" x2="29.0824" y2="19.2304" gradientUnits="userSpaceOnUse">
<stop stop-color="#026841" stop-opacity="0"/>
<stop offset="0.3243" stop-color="#046842" stop-opacity="0.324"/>
<stop offset="0.5509" stop-color="#0E6546" stop-opacity="0.551"/>
<stop offset="0.7476" stop-color="#1D614C" stop-opacity="0.748"/>
<stop offset="0.9263" stop-color="#335C54" stop-opacity="0.926"/>
<stop offset="1" stop-color="#3E5959"/>
</linearGradient>
<linearGradient id="paint3_linear_1_1161" x1="28.9571" y1="14.5971" x2="19.7593" y2="11.8876" gradientUnits="userSpaceOnUse">
<stop stop-color="#026841" stop-opacity="0"/>
<stop offset="0.3243" stop-color="#046842" stop-opacity="0.324"/>
<stop offset="0.5509" stop-color="#0E6546" stop-opacity="0.551"/>
<stop offset="0.7476" stop-color="#1D614C" stop-opacity="0.748"/>
<stop offset="0.9263" stop-color="#335C54" stop-opacity="0.926"/>
<stop offset="1" stop-color="#3E5959"/>
</linearGradient>
<linearGradient id="paint4_linear_1_1161" x1="6.5741" y1="9.56958" x2="11.0736" y2="14.0692" gradientUnits="userSpaceOnUse">
<stop stop-color="#026841" stop-opacity="0"/>
<stop offset="0.3243" stop-color="#046842" stop-opacity="0.324"/>
<stop offset="0.5509" stop-color="#0E6546" stop-opacity="0.551"/>
<stop offset="0.7476" stop-color="#1D614C" stop-opacity="0.748"/>
<stop offset="0.9263" stop-color="#335C54" stop-opacity="0.926"/>
<stop offset="1" stop-color="#3E5959"/>
</linearGradient>
<linearGradient id="paint5_linear_1_1161" x1="19.6289" y1="9.39797" x2="24.689" y2="14.458" gradientUnits="userSpaceOnUse">
<stop stop-color="#026841" stop-opacity="0"/>
<stop offset="0.3243" stop-color="#046842" stop-opacity="0.324"/>
<stop offset="0.5509" stop-color="#0E6546" stop-opacity="0.551"/>
<stop offset="0.7476" stop-color="#1D614C" stop-opacity="0.748"/>
<stop offset="0.9263" stop-color="#335C54" stop-opacity="0.926"/>
<stop offset="1" stop-color="#3E5959"/>
</linearGradient>
<linearGradient id="paint6_linear_1_1161" x1="8.93064" y1="1.93144" x2="23.4248" y2="15.6099" gradientUnits="userSpaceOnUse">
<stop stop-color="#FEF0AE"/>
<stop offset="1" stop-color="#FAC600"/>
</linearGradient>
<linearGradient id="paint7_linear_1_1161" x1="22.2085" y1="7.86064" x2="22.2085" y2="13.8871" gradientUnits="userSpaceOnUse">
<stop stop-color="#FEA613" stop-opacity="0"/>
<stop offset="0.2032" stop-color="#FDA215" stop-opacity="0.203"/>
<stop offset="0.4052" stop-color="#FB961B" stop-opacity="0.405"/>
<stop offset="0.6066" stop-color="#F68225" stop-opacity="0.607"/>
<stop offset="0.8066" stop-color="#F06633" stop-opacity="0.807"/>
<stop offset="1" stop-color="#E94444"/>
</linearGradient>
<linearGradient id="paint8_linear_1_1161" x1="9.7905" y1="7.86064" x2="9.7905" y2="13.8871" gradientUnits="userSpaceOnUse">
<stop stop-color="#FEA613" stop-opacity="0"/>
<stop offset="0.2032" stop-color="#FDA215" stop-opacity="0.203"/>
<stop offset="0.4052" stop-color="#FB961B" stop-opacity="0.405"/>
<stop offset="0.6066" stop-color="#F68225" stop-opacity="0.607"/>
<stop offset="0.8066" stop-color="#F06633" stop-opacity="0.807"/>
<stop offset="1" stop-color="#E94444"/>
</linearGradient>
<linearGradient id="paint9_linear_1_1161" x1="20.6424" y1="6.71984" x2="23.9678" y2="6.71984" gradientUnits="userSpaceOnUse">
<stop stop-color="#FEA613" stop-opacity="0"/>
<stop offset="0.2032" stop-color="#FDA215" stop-opacity="0.203"/>
<stop offset="0.4052" stop-color="#FB961B" stop-opacity="0.405"/>
<stop offset="0.6066" stop-color="#F68225" stop-opacity="0.607"/>
<stop offset="0.8066" stop-color="#F06633" stop-opacity="0.807"/>
<stop offset="1" stop-color="#E94444"/>
</linearGradient>
<linearGradient id="paint10_linear_1_1161" x1="15.9992" y1="28.6293" x2="15.9992" y2="32.438" gradientUnits="userSpaceOnUse">
<stop stop-color="#026841" stop-opacity="0"/>
<stop offset="0.3243" stop-color="#046842" stop-opacity="0.324"/>
<stop offset="0.5509" stop-color="#0E6546" stop-opacity="0.551"/>
<stop offset="0.7476" stop-color="#1D614C" stop-opacity="0.748"/>
<stop offset="0.9263" stop-color="#335C54" stop-opacity="0.926"/>
<stop offset="1" stop-color="#3E5959"/>
</linearGradient>
<linearGradient id="paint11_linear_1_1161" x1="20.1124" y1="34.3713" x2="16.285" y2="24.583" gradientUnits="userSpaceOnUse">
<stop stop-color="#026841" stop-opacity="0"/>
<stop offset="0.3243" stop-color="#046842" stop-opacity="0.324"/>
<stop offset="0.5509" stop-color="#0E6546" stop-opacity="0.551"/>
<stop offset="0.7476" stop-color="#1D614C" stop-opacity="0.748"/>
<stop offset="0.9263" stop-color="#335C54" stop-opacity="0.926"/>
<stop offset="1" stop-color="#3E5959"/>
</linearGradient>
<linearGradient id="paint12_linear_1_1161" x1="11.3151" y1="17.4627" x2="11.3151" y2="18.4414" gradientUnits="userSpaceOnUse">
<stop stop-color="#EAF9FA"/>
<stop offset="1" stop-color="#B3DAFE"/>
</linearGradient>
<linearGradient id="paint13_linear_1_1161" x1="20.6862" y1="17.4627" x2="20.6862" y2="18.4414" gradientUnits="userSpaceOnUse">
<stop stop-color="#EAF9FA"/>
<stop offset="1" stop-color="#B3DAFE"/>
</linearGradient>
<linearGradient id="paint14_linear_1_1161" x1="12.4811" y1="17.8437" x2="19.3802" y2="33.3905" gradientUnits="userSpaceOnUse">
<stop stop-color="#537983"/>
<stop offset="1" stop-color="#384949"/>
</linearGradient>
<linearGradient id="paint15_linear_1_1161" x1="16.0007" y1="22.9187" x2="16.0007" y2="20.8793" gradientUnits="userSpaceOnUse">
<stop stop-color="#537983"/>
<stop offset="1" stop-color="#384949"/>
</linearGradient>
<linearGradient id="paint16_linear_1_1161" x1="16.0007" y1="28.2487" x2="16.0007" y2="30.6366" gradientUnits="userSpaceOnUse">
<stop stop-color="#554E56" stop-opacity="0"/>
<stop offset="0.269" stop-color="#524B52" stop-opacity="0.269"/>
<stop offset="0.521" stop-color="#464147" stop-opacity="0.521"/>
<stop offset="0.7654" stop-color="#343034" stop-opacity="0.765"/>
<stop offset="1" stop-color="#1A1A1A"/>
</linearGradient>
<linearGradient id="paint17_linear_1_1161" x1="16.3481" y1="28.5706" x2="14.369" y2="27.2115" gradientUnits="userSpaceOnUse">
<stop stop-color="#554E56" stop-opacity="0"/>
<stop offset="0.269" stop-color="#524B52" stop-opacity="0.269"/>
<stop offset="0.521" stop-color="#464147" stop-opacity="0.521"/>
<stop offset="0.7654" stop-color="#343034" stop-opacity="0.765"/>
<stop offset="1" stop-color="#1A1A1A"/>
</linearGradient>
<linearGradient id="paint18_linear_1_1161" x1="9.28039" y1="25.749" x2="7.14812" y2="23.6167" gradientUnits="userSpaceOnUse">
<stop stop-color="#554E56" stop-opacity="0"/>
<stop offset="0.269" stop-color="#524B52" stop-opacity="0.269"/>
<stop offset="0.521" stop-color="#464147" stop-opacity="0.521"/>
<stop offset="0.7654" stop-color="#343034" stop-opacity="0.765"/>
<stop offset="1" stop-color="#1A1A1A"/>
</linearGradient>
<linearGradient id="paint19_linear_1_1161" x1="11.5451" y1="28.0144" x2="8.47114" y2="24.9405" gradientUnits="userSpaceOnUse">
<stop stop-color="#554E56" stop-opacity="0"/>
<stop offset="0.269" stop-color="#524B52" stop-opacity="0.269"/>
<stop offset="0.521" stop-color="#464147" stop-opacity="0.521"/>
<stop offset="0.7654" stop-color="#343034" stop-opacity="0.765"/>
<stop offset="1" stop-color="#1A1A1A"/>
</linearGradient>
<linearGradient id="paint20_linear_1_1161" x1="21.9844" y1="24.6535" x2="27.6118" y2="27.7056" gradientUnits="userSpaceOnUse">
<stop stop-color="#554E56" stop-opacity="0"/>
<stop offset="0.269" stop-color="#524B52" stop-opacity="0.269"/>
<stop offset="0.521" stop-color="#464147" stop-opacity="0.521"/>
<stop offset="0.7654" stop-color="#343034" stop-opacity="0.765"/>
<stop offset="1" stop-color="#1A1A1A"/>
</linearGradient>
<linearGradient id="paint21_linear_1_1161" x1="26.2417" y1="27.6094" x2="21.0618" y2="22.4295" gradientUnits="userSpaceOnUse">
<stop stop-color="#537983"/>
<stop offset="1" stop-color="#384949"/>
</linearGradient>
<linearGradient id="paint22_linear_1_1161" x1="21.1044" y1="24.4232" x2="22.089" y2="25.4078" gradientUnits="userSpaceOnUse">
<stop stop-color="#FEF0AE"/>
<stop offset="1" stop-color="#FAC600"/>
</linearGradient>
<linearGradient id="paint23_linear_1_1161" x1="21.5179" y1="24.8516" x2="21.5179" y2="25.8185" gradientUnits="userSpaceOnUse">
<stop stop-color="#FEA613" stop-opacity="0"/>
<stop offset="0.2032" stop-color="#FDA215" stop-opacity="0.203"/>
<stop offset="0.4052" stop-color="#FB961B" stop-opacity="0.405"/>
<stop offset="0.6066" stop-color="#F68225" stop-opacity="0.607"/>
<stop offset="0.8066" stop-color="#F06633" stop-opacity="0.807"/>
<stop offset="1" stop-color="#E94444"/>
</linearGradient>
<linearGradient id="paint24_linear_1_1161" x1="21.6919" y1="25.0097" x2="22.2642" y2="25.5821" gradientUnits="userSpaceOnUse">
<stop stop-color="#FEA613" stop-opacity="0"/>
<stop offset="0.2032" stop-color="#FDA215" stop-opacity="0.203"/>
<stop offset="0.4052" stop-color="#FB961B" stop-opacity="0.405"/>
<stop offset="0.6066" stop-color="#F68225" stop-opacity="0.607"/>
<stop offset="0.8066" stop-color="#F06633" stop-opacity="0.807"/>
<stop offset="1" stop-color="#E94444"/>
</linearGradient>
<linearGradient id="paint25_linear_1_1161" x1="25.0106" y1="24.4232" x2="25.9952" y2="25.4078" gradientUnits="userSpaceOnUse">
<stop stop-color="#FE646F"/>
<stop offset="1" stop-color="#C41926"/>
</linearGradient>
<linearGradient id="paint26_linear_1_1161" x1="25.4242" y1="24.8516" x2="25.4242" y2="25.8185" gradientUnits="userSpaceOnUse">
<stop stop-color="#A72B2B" stop-opacity="0"/>
<stop offset="0.1996" stop-color="#A32B2A" stop-opacity="0.2"/>
<stop offset="0.3982" stop-color="#972926" stop-opacity="0.398"/>
<stop offset="0.5966" stop-color="#832820" stop-opacity="0.597"/>
<stop offset="0.7949" stop-color="#672517" stop-opacity="0.795"/>
<stop offset="0.9914" stop-color="#44210C" stop-opacity="0.991"/>
<stop offset="1" stop-color="#42210B"/>
</linearGradient>
<linearGradient id="paint27_linear_1_1161" x1="25.5982" y1="25.0097" x2="26.1705" y2="25.5821" gradientUnits="userSpaceOnUse">
<stop stop-color="#A72B2B" stop-opacity="0"/>
<stop offset="0.1996" stop-color="#A32B2A" stop-opacity="0.2"/>
<stop offset="0.3982" stop-color="#972926" stop-opacity="0.398"/>
<stop offset="0.5966" stop-color="#832820" stop-opacity="0.597"/>
<stop offset="0.7949" stop-color="#672517" stop-opacity="0.795"/>
<stop offset="0.9914" stop-color="#44210C" stop-opacity="0.991"/>
<stop offset="1" stop-color="#42210B"/>
</linearGradient>
<linearGradient id="paint28_linear_1_1161" x1="23.0575" y1="22.4711" x2="24.0421" y2="23.4557" gradientUnits="userSpaceOnUse">
<stop stop-color="#BBEC6C"/>
<stop offset="1" stop-color="#78A91F"/>
</linearGradient>
<linearGradient id="paint29_linear_1_1161" x1="23.471" y1="22.8994" x2="23.471" y2="23.8663" gradientUnits="userSpaceOnUse">
<stop stop-color="#026841" stop-opacity="0"/>
<stop offset="0.3243" stop-color="#046842" stop-opacity="0.324"/>
<stop offset="0.5509" stop-color="#0E6546" stop-opacity="0.551"/>
<stop offset="0.7476" stop-color="#1D614C" stop-opacity="0.748"/>
<stop offset="0.9263" stop-color="#335C54" stop-opacity="0.926"/>
<stop offset="1" stop-color="#3E5959"/>
</linearGradient>
<linearGradient id="paint30_linear_1_1161" x1="23.6451" y1="23.0576" x2="24.2174" y2="23.63" gradientUnits="userSpaceOnUse">
<stop stop-color="#026841" stop-opacity="0"/>
<stop offset="0.3243" stop-color="#046842" stop-opacity="0.324"/>
<stop offset="0.5509" stop-color="#0E6546" stop-opacity="0.551"/>
<stop offset="0.7476" stop-color="#1D614C" stop-opacity="0.748"/>
<stop offset="0.9263" stop-color="#335C54" stop-opacity="0.926"/>
<stop offset="1" stop-color="#3E5959"/>
</linearGradient>
<linearGradient id="paint31_linear_1_1161" x1="23.0575" y1="26.3763" x2="24.0421" y2="27.3609" gradientUnits="userSpaceOnUse">
<stop stop-color="#C8EFFE"/>
<stop offset="1" stop-color="#62DBFB"/>
</linearGradient>
<linearGradient id="paint32_linear_1_1161" x1="23.471" y1="26.8047" x2="23.471" y2="27.7716" gradientUnits="userSpaceOnUse">
<stop stop-color="#07B2CD" stop-opacity="0"/>
<stop offset="0.4553" stop-color="#05A5CE" stop-opacity="0.455"/>
<stop offset="1" stop-color="#0290CF"/>
</linearGradient>
<linearGradient id="paint33_linear_1_1161" x1="23.6451" y1="26.9629" x2="24.2174" y2="27.5352" gradientUnits="userSpaceOnUse">
<stop stop-color="#07B2CD" stop-opacity="0"/>
<stop offset="0.4553" stop-color="#05A5CE" stop-opacity="0.455"/>
<stop offset="1" stop-color="#0290CF"/>
</linearGradient>
<linearGradient id="paint34_linear_1_1161" x1="22.7468" y1="29.5919" x2="19.1224" y2="27.9585" gradientUnits="userSpaceOnUse">
<stop stop-color="#554E56" stop-opacity="0"/>
<stop offset="0.269" stop-color="#524B52" stop-opacity="0.269"/>
<stop offset="0.521" stop-color="#464147" stop-opacity="0.521"/>
<stop offset="0.7654" stop-color="#343034" stop-opacity="0.765"/>
<stop offset="1" stop-color="#1A1A1A"/>
</linearGradient>
<linearGradient id="paint35_linear_1_1161" x1="12.5941" y1="27.0144" x2="14.1829" y2="28.6032" gradientUnits="userSpaceOnUse">
<stop stop-color="#EAF9FA"/>
<stop offset="1" stop-color="#B3DAFE"/>
</linearGradient>
<linearGradient id="paint36_linear_1_1161" x1="13.2615" y1="27.7062" x2="13.2615" y2="29.2664" gradientUnits="userSpaceOnUse">
<stop stop-color="#B3DAFE" stop-opacity="0"/>
<stop offset="0.2438" stop-color="#ACD5FA" stop-opacity="0.244"/>
<stop offset="0.589" stop-color="#9AC5F0" stop-opacity="0.589"/>
<stop offset="0.9932" stop-color="#7CACDF" stop-opacity="0.993"/>
<stop offset="1" stop-color="#7BACDF"/>
</linearGradient>
<linearGradient id="paint37_linear_1_1161" x1="13.5396" y1="27.9608" x2="14.4631" y2="28.8845" gradientUnits="userSpaceOnUse">
<stop stop-color="#B3DAFE" stop-opacity="0"/>
<stop offset="0.2438" stop-color="#ACD5FA" stop-opacity="0.244"/>
<stop offset="0.589" stop-color="#9AC5F0" stop-opacity="0.589"/>
<stop offset="0.9932" stop-color="#7CACDF" stop-opacity="0.993"/>
<stop offset="1" stop-color="#7BACDF"/>
</linearGradient>
<linearGradient id="paint38_linear_1_1161" x1="18.0725" y1="27.0144" x2="19.6613" y2="28.6032" gradientUnits="userSpaceOnUse">
<stop stop-color="#EAF9FA"/>
<stop offset="1" stop-color="#B3DAFE"/>
</linearGradient>
<linearGradient id="paint39_linear_1_1161" x1="18.7399" y1="27.7062" x2="18.7399" y2="29.2664" gradientUnits="userSpaceOnUse">
<stop stop-color="#B3DAFE" stop-opacity="0"/>
<stop offset="0.2438" stop-color="#ACD5FA" stop-opacity="0.244"/>
<stop offset="0.589" stop-color="#9AC5F0" stop-opacity="0.589"/>
<stop offset="0.9932" stop-color="#7CACDF" stop-opacity="0.993"/>
<stop offset="1" stop-color="#7BACDF"/>
</linearGradient>
<linearGradient id="paint40_linear_1_1161" x1="19.0199" y1="27.9608" x2="19.9435" y2="28.8845" gradientUnits="userSpaceOnUse">
<stop stop-color="#B3DAFE" stop-opacity="0"/>
<stop offset="0.2438" stop-color="#ACD5FA" stop-opacity="0.244"/>
<stop offset="0.589" stop-color="#9AC5F0" stop-opacity="0.589"/>
<stop offset="0.9932" stop-color="#7CACDF" stop-opacity="0.993"/>
<stop offset="1" stop-color="#7BACDF"/>
</linearGradient>
<linearGradient id="paint41_linear_1_1161" x1="6.84173" y1="23.313" x2="8.96609" y2="25.4373" gradientUnits="userSpaceOnUse">
<stop stop-color="#EAF9FA"/>
<stop offset="1" stop-color="#B3DAFE"/>
</linearGradient>
<linearGradient id="paint42_linear_1_1161" x1="9.02237" y1="24.0895" x2="7.7696" y2="22.8367" gradientUnits="userSpaceOnUse">
<stop stop-color="#EAF9FA"/>
<stop offset="1" stop-color="#B3DAFE"/>
</linearGradient>
<linearGradient id="paint43_linear_1_1161" x1="9.01415" y1="26.8873" x2="7.91122" y2="25.7843" gradientUnits="userSpaceOnUse">
<stop stop-color="#EAF9FA"/>
<stop offset="1" stop-color="#B3DAFE"/>
</linearGradient>
<linearGradient id="paint44_linear_1_1161" x1="10.4816" y1="25.5499" x2="9.16418" y2="24.2325" gradientUnits="userSpaceOnUse">
<stop stop-color="#EAF9FA"/>
<stop offset="1" stop-color="#B3DAFE"/>
</linearGradient>
<linearGradient id="paint45_linear_1_1161" x1="7.61331" y1="25.4866" x2="6.42052" y2="24.2938" gradientUnits="userSpaceOnUse">
<stop stop-color="#EAF9FA"/>
<stop offset="1" stop-color="#B3DAFE"/>
</linearGradient>
<linearGradient id="paint46_linear_1_1161" x1="8.36606" y1="26.7263" x2="8.36606" y2="27.5612" gradientUnits="userSpaceOnUse">
<stop stop-color="#B3DAFE" stop-opacity="0"/>
<stop offset="0.2438" stop-color="#ACD5FA" stop-opacity="0.244"/>
<stop offset="0.589" stop-color="#9AC5F0" stop-opacity="0.589"/>
<stop offset="0.9932" stop-color="#7CACDF" stop-opacity="0.993"/>
<stop offset="1" stop-color="#7BACDF"/>
</linearGradient>
<linearGradient id="paint47_linear_1_1161" x1="10.2551" y1="24.8372" x2="11.09" y2="24.8372" gradientUnits="userSpaceOnUse">
<stop stop-color="#B3DAFE" stop-opacity="0"/>
<stop offset="0.2438" stop-color="#ACD5FA" stop-opacity="0.244"/>
<stop offset="0.589" stop-color="#9AC5F0" stop-opacity="0.589"/>
<stop offset="0.9932" stop-color="#7CACDF" stop-opacity="0.993"/>
<stop offset="1" stop-color="#7BACDF"/>
</linearGradient>
<clipPath id="clip0_1_1161">
<rect width="32" height="32" fill="white" transform="translate(0 0.0170898)"/>
</clipPath>
</defs>
</svg>
