<svg width="32" height="33" viewBox="0 0 32 33" fill="none" xmlns="http://www.w3.org/2000/svg">
<g clip-path="url(#clip0_1_1236)">
<path d="M20.6492 10.0298C26.9178 10.0298 31.9996 14.3889 31.9996 19.7662C31.9996 21.3901 31.536 22.9212 30.7163 24.2673C29.7784 25.8077 30.2655 27.828 31.8026 28.7712C31.8136 28.7779 31.8246 28.7845 31.8356 28.7912C32.0983 28.95 32.0321 29.3503 31.7311 29.4093C31.4211 29.4701 31.1012 29.5025 30.773 29.5025C29.2858 29.5025 27.9517 28.8482 27.0422 27.8118C25.2215 28.8785 23.0204 29.5025 20.6492 29.5025C14.3806 29.5025 9.29883 25.1434 9.29883 19.7662C9.29883 14.3889 14.3806 10.0298 20.6492 10.0298Z" fill="url(#paint0_linear_1_1236)"/>
<path d="M31.9996 19.7671C31.9996 21.391 31.5361 22.9221 30.7163 24.2683C29.7784 25.8086 30.2655 27.8289 31.8026 28.7721C31.8136 28.7788 31.8246 28.7854 31.8356 28.7921C32.0983 28.9509 32.0321 29.3512 31.7311 29.4102C31.4211 29.471 31.1012 29.5034 30.773 29.5034C29.2858 29.5034 27.9517 28.8491 27.0422 27.8128C25.2215 28.8794 23.0204 29.5034 20.6492 29.5034C14.3806 29.5034 9.29883 25.1443 9.29883 19.7671C9.29883 19.5706 9.30639 19.3757 9.31977 19.1821H31.9786C31.992 19.3757 31.9996 19.5706 31.9996 19.7671Z" fill="url(#paint1_linear_1_1236)"/>
<path d="M31.9988 19.7656C31.9988 14.5006 27.1267 10.2123 21.0391 10.0356V29.496C23.2612 29.4315 25.3211 28.8191 27.0415 27.8113C27.9511 28.8476 29.2851 29.502 30.7722 29.502C31.1005 29.502 31.4204 29.4696 31.7304 29.4088C32.0314 29.3498 32.0976 28.9495 31.8349 28.7907C31.8239 28.7841 31.8129 28.7774 31.8019 28.7706C30.2647 27.8275 29.7777 25.8072 30.7156 24.2668C31.5352 22.9206 31.9988 21.3896 31.9988 19.7656Z" fill="url(#paint2_linear_1_1236)"/>
<path d="M20.6492 10.0298C26.9178 10.0298 31.9996 14.3889 31.9996 19.7662C31.9996 21.3901 31.536 22.9212 30.7163 24.2673C29.7784 25.8077 30.2655 27.828 31.8026 28.7712C31.8136 28.7779 31.8246 28.7845 31.8356 28.7912C32.0983 28.95 32.0321 29.3503 31.7311 29.4093C31.4211 29.4701 31.1012 29.5025 30.773 29.5025C29.2858 29.5025 27.9517 28.8482 27.0422 27.8118C25.2215 28.8785 23.0204 29.5025 20.6492 29.5025C14.3806 29.5025 9.29883 25.1434 9.29883 19.7662C9.29883 14.3889 14.3806 10.0298 20.6492 10.0298Z" fill="url(#paint3_linear_1_1236)"/>
<path d="M13.3216 2.51221C5.96425 2.51221 0 7.62833 0 13.9395C0 15.8454 0.544 17.6423 1.50612 19.2223C2.607 21.0302 2.03531 23.4014 0.231187 24.5083C0.218312 24.5162 0.205437 24.5241 0.1925 24.5318C-0.115813 24.7182 -0.03825 25.188 0.315125 25.2573C0.678875 25.3286 1.05444 25.3667 1.43963 25.3667C3.18506 25.3667 4.75081 24.5986 5.81831 23.3824C7.95525 24.6343 10.5386 25.3667 13.3216 25.3667C20.6789 25.3667 26.6431 20.2506 26.6431 13.9395C26.6431 7.62833 20.6789 2.51221 13.3216 2.51221Z" fill="url(#paint4_linear_1_1236)"/>
<path d="M4.34934 14.9355C4.20947 14.9583 4.08316 14.9466 3.97022 14.9005C3.85728 14.8543 3.80078 14.7667 3.80078 14.6377V9.50711C3.80078 9.37279 3.86659 9.26529 3.99841 9.18454C4.13016 9.10404 4.27397 9.05092 4.43003 9.02554C4.58591 9.00017 4.72978 9.00642 4.86159 9.04398C4.99334 9.08179 5.05928 9.16786 5.05928 9.30217V13.7229L6.89853 13.4233C7.02216 13.4032 7.11353 13.4447 7.17278 13.548C7.23191 13.6514 7.26153 13.7729 7.26153 13.9127C7.26153 14.0526 7.23191 14.1837 7.17278 14.3063C7.11359 14.4289 7.02222 14.5002 6.89853 14.5204L4.34934 14.9355Z" fill="url(#paint5_linear_1_1236)"/>
<path d="M9.34353 10.2345C9.57472 10.1969 9.79528 10.1986 10.005 10.2397C10.2147 10.2809 10.3989 10.3558 10.5577 10.4643C10.7162 10.573 10.8426 10.7137 10.9368 10.8866C11.0308 11.0596 11.0779 11.2588 11.0779 11.4847C11.0779 11.6621 11.055 11.8059 11.0093 11.9154C10.9637 12.0251 10.9031 12.1101 10.8278 12.1708C10.7525 12.2314 10.6678 12.2749 10.5738 12.3009C10.4797 12.3271 10.3868 12.3474 10.2955 12.3624L8.73859 12.6159V12.6644C8.73859 12.8634 8.81378 13.0111 8.96447 13.1076C9.11497 13.2041 9.31397 13.2321 9.56147 13.1919C9.68509 13.1717 9.79541 13.1376 9.89216 13.0896C9.98891 13.0415 10.0763 12.9938 10.1543 12.946C10.2322 12.8984 10.3048 12.8529 10.3721 12.8097C10.4393 12.7665 10.5052 12.7397 10.5698 12.7291C10.6396 12.7177 10.7041 12.7274 10.7633 12.7581C10.8225 12.7888 10.8709 12.8292 10.9085 12.8796C10.9461 12.93 10.9757 12.9844 10.9973 13.0426C11.0188 13.1011 11.0295 13.1544 11.0295 13.2028C11.0295 13.2782 10.9945 13.3645 10.9247 13.4619C10.8547 13.5594 10.7539 13.6551 10.6222 13.7491C10.4903 13.8432 10.3318 13.9282 10.1462 14.0041C9.96072 14.0799 9.75497 14.1364 9.52909 14.1732C9.22791 14.2222 8.95359 14.2252 8.70634 14.1821C8.45891 14.1391 8.24372 14.0586 8.06097 13.9404C7.87809 13.8223 7.73697 13.6664 7.63747 13.4729C7.53791 13.2794 7.48828 13.0535 7.48828 12.7954V12.2066C7.48828 11.9807 7.53666 11.759 7.63347 11.5416C7.73022 11.3241 7.86191 11.1252 8.02866 10.9448C8.19534 10.7643 8.39172 10.6114 8.61759 10.4859C8.84341 10.3603 9.08534 10.2765 9.34353 10.2345ZM9.73878 11.7512C9.79791 11.7416 9.84084 11.7212 9.86778 11.6899C9.89466 11.6586 9.90816 11.6054 9.90816 11.53C9.90816 11.3687 9.84759 11.2575 9.72666 11.1966C9.60566 11.1356 9.46978 11.1174 9.31928 11.1419C9.17409 11.1656 9.04097 11.2276 8.92003 11.3281C8.79903 11.4284 8.73853 11.5593 8.73853 11.7206V11.9142L9.73878 11.7512Z" fill="url(#paint6_linear_1_1236)"/>
<path d="M12.8675 12.1845C12.8675 12.3028 12.8917 12.3808 12.9401 12.4186C12.9886 12.4565 13.0744 12.4653 13.1983 12.4452L13.5451 12.3887C13.7279 12.359 13.8624 12.3922 13.9484 12.4883C14.0344 12.5846 14.0774 12.6972 14.0774 12.8263C14.0774 12.9608 14.0344 13.0888 13.9484 13.2103C13.8624 13.3319 13.7279 13.4076 13.5451 13.4373L13.1983 13.4938C12.6819 13.5779 12.2893 13.5343 12.0205 13.363C11.7515 13.1918 11.6172 12.8668 11.6172 12.3881V8.62083C11.6172 8.56708 11.636 8.51289 11.6737 8.45839C11.7113 8.40383 11.7597 8.35564 11.8189 8.31371C11.878 8.27183 11.9439 8.23564 12.0165 8.20489C12.0891 8.17433 12.163 8.15283 12.2384 8.14058C12.319 8.12746 12.3969 8.12421 12.4723 8.13064C12.5475 8.13733 12.6147 8.15183 12.674 8.17439C12.7331 8.19708 12.7801 8.22977 12.8151 8.27246C12.8501 8.31514 12.8676 8.36346 12.8676 8.41714V9.70783L13.7791 9.55933C13.8812 9.54271 13.9578 9.57733 14.0091 9.66302C14.0601 9.74889 14.0857 9.84558 14.0857 9.95302C14.0857 10.066 14.0601 10.1724 14.0091 10.2721C13.9578 10.3719 13.8812 10.4301 13.7791 10.4467L12.8676 10.5952V12.1845H12.8675Z" fill="url(#paint7_linear_1_1236)"/>
<path d="M15.0058 7.22249C15.1778 7.19449 15.3244 7.23105 15.4453 7.3323C15.5664 7.43367 15.6268 7.56767 15.6268 7.73436C15.6268 7.7613 15.6228 7.79149 15.6147 7.82505C15.6066 7.85861 15.5865 7.92111 15.5543 8.01236C15.522 8.10367 15.4721 8.23542 15.405 8.40773C15.3377 8.58005 15.245 8.81292 15.1267 9.10649C15.0998 9.17011 15.0635 9.21498 15.0178 9.24111C14.9721 9.26748 14.9277 9.28405 14.8847 9.29105C14.7985 9.30511 14.7098 9.29267 14.6185 9.25374C14.527 9.21492 14.4814 9.1443 14.4814 9.04211C14.4814 8.99905 14.4921 8.95436 14.5136 8.90773L14.7153 8.4393C14.6185 8.39592 14.5405 8.33205 14.4814 8.24755C14.4221 8.16317 14.3926 8.06167 14.3926 7.94336C14.3926 7.7713 14.4517 7.61511 14.5701 7.4748C14.6884 7.33467 14.8336 7.25055 15.0058 7.22249Z" fill="url(#paint8_linear_1_1236)"/>
<path d="M17.4107 11.9617C17.5182 11.9442 17.6043 11.922 17.6688 11.8954C17.7333 11.8687 17.7844 11.8391 17.822 11.8059C17.8596 11.7729 17.8838 11.7394 17.8947 11.7053C17.9053 11.6713 17.9107 11.641 17.9107 11.6139C17.9107 11.5226 17.8636 11.4603 17.7696 11.4272C17.6754 11.3941 17.5585 11.3688 17.4187 11.3512C17.2788 11.3337 17.1283 11.3166 16.967 11.2997C16.8056 11.2831 16.655 11.2444 16.5152 11.1837C16.3753 11.1232 16.2583 11.0319 16.1643 10.9102C16.0702 10.7884 16.0232 10.6145 16.0232 10.3886C16.0232 10.2381 16.0486 10.0848 16.0998 9.92843C16.1508 9.77224 16.2355 9.62537 16.3538 9.48774C16.4721 9.35024 16.6282 9.2293 16.8218 9.12512C17.0153 9.02105 17.2545 8.94574 17.5397 8.8993C17.7172 8.87036 17.8878 8.85743 18.052 8.86024C18.2159 8.86311 18.3611 8.87987 18.4876 8.9103C18.6139 8.94093 18.7162 8.9848 18.7941 9.04193C18.872 9.09924 18.9111 9.17086 18.9111 9.2568C18.9111 9.29993 18.9017 9.35518 18.8829 9.42274C18.864 9.49036 18.8345 9.55968 18.7941 9.6308C18.7538 9.70187 18.7053 9.76499 18.6489 9.8198C18.5924 9.8748 18.5292 9.90786 18.4593 9.91924C18.4055 9.92799 18.349 9.92511 18.2899 9.91049C18.2307 9.89593 18.165 9.87843 18.0923 9.85793C18.0197 9.83749 17.939 9.82243 17.8503 9.81268C17.7615 9.80293 17.6633 9.8068 17.5558 9.8243C17.3945 9.85062 17.2775 9.89793 17.2049 9.96624C17.1323 10.0346 17.096 10.0982 17.096 10.1574C17.096 10.2327 17.143 10.2828 17.2372 10.3079C17.3312 10.3329 17.4482 10.3516 17.5881 10.3637C17.7279 10.3759 17.8812 10.3913 18.0479 10.4098C18.2146 10.4284 18.3678 10.4706 18.5077 10.5366C18.6475 10.6025 18.7645 10.7018 18.8587 10.8343C18.9527 10.967 18.9998 11.1516 18.9998 11.3881C18.9998 11.77 18.8667 12.0942 18.6005 12.3607C18.3343 12.6272 17.9483 12.8017 17.4429 12.884C17.2332 12.9182 17.0342 12.9304 16.8459 12.9207C16.6576 12.9111 16.495 12.8838 16.3579 12.8389C16.2207 12.7939 16.1118 12.7324 16.0312 12.6541C15.9505 12.5759 15.9102 12.4882 15.9102 12.3915C15.9102 12.3431 15.9195 12.2865 15.9383 12.2216C15.9572 12.1567 15.9853 12.0929 16.0231 12.0303C16.0607 11.9677 16.1038 11.9122 16.1521 11.8641C16.2005 11.8159 16.257 11.7865 16.3215 11.776C16.386 11.7655 16.4492 11.7741 16.5111 11.8016C16.5728 11.8292 16.6428 11.8596 16.7209 11.8925C16.7988 11.9256 16.8929 11.952 17.0032 11.9716C17.1135 11.9912 17.2493 11.9879 17.4107 11.9617Z" fill="url(#paint9_linear_1_1236)"/>
<path d="M11.4422 14.4728C11.5767 14.4509 11.6734 14.4944 11.7326 14.603C11.7917 14.7118 11.8214 14.8333 11.8214 14.9677C11.8214 15.1237 11.7891 15.2634 11.7246 15.3868C11.6601 15.5103 11.5659 15.5821 11.4422 15.6022L10.329 15.7835V20.1638C10.329 20.2928 10.2631 20.4004 10.1313 20.4865C9.99944 20.5725 9.85569 20.6282 9.69975 20.6535C9.54369 20.679 9.39988 20.6701 9.26813 20.627C9.13625 20.5839 9.0705 20.4978 9.0705 20.3688V15.9885L7.95725 16.1698C7.8335 16.19 7.7395 16.1488 7.675 16.0464C7.61037 15.944 7.57812 15.8148 7.57812 15.6588C7.57812 15.5244 7.60762 15.3932 7.66687 15.2652C7.726 15.1373 7.82287 15.0623 7.95725 15.0404L11.4422 14.4728Z" fill="url(#paint10_linear_1_1236)"/>
<path d="M12.8939 16.2448C13.2219 16.1913 13.503 16.1899 13.7369 16.2406C13.9709 16.2912 14.1617 16.3771 14.3097 16.4982C14.4576 16.6193 14.565 16.77 14.6324 16.9498C14.6996 17.1299 14.7332 17.322 14.7332 17.5263V19.4463C14.7332 19.5539 14.6753 19.6547 14.5598 19.7488C14.4441 19.843 14.2976 19.9044 14.1201 19.9333C13.9641 19.9588 13.8324 19.9426 13.7248 19.8848C13.6172 19.8271 13.5634 19.7444 13.5634 19.6368V19.4593C13.4183 19.6551 13.2475 19.8334 13.0512 19.9944C12.8548 20.1556 12.6168 20.2588 12.3373 20.3043C12.1974 20.3271 12.0656 20.327 11.942 20.3042C11.8183 20.2813 11.7093 20.2331 11.6152 20.1597C11.5211 20.0863 11.4458 19.987 11.3894 19.8617C11.333 19.7366 11.3047 19.5824 11.3047 19.3996C11.3047 19.163 11.3503 18.9593 11.4418 18.7883C11.5332 18.6175 11.6622 18.4714 11.829 18.3502C11.9957 18.229 12.1947 18.1307 12.426 18.0553C12.6572 17.98 12.9127 17.9195 13.1924 17.8739L13.4827 17.8266V17.7459C13.4827 17.6761 13.4733 17.6078 13.4545 17.5408C13.4356 17.4741 13.4021 17.4163 13.3537 17.3677C13.3053 17.3191 13.242 17.2824 13.1641 17.2574C13.0861 17.2326 12.9907 17.2292 12.8778 17.2476C12.7111 17.2748 12.5793 17.3097 12.4825 17.3523C12.3858 17.395 12.3051 17.4391 12.2405 17.4845C12.1759 17.53 12.1221 17.5697 12.0791 17.6036C12.036 17.6376 11.9876 17.6588 11.9339 17.6675C11.8639 17.6789 11.8035 17.67 11.7524 17.6406C11.7013 17.6113 11.6583 17.5699 11.6234 17.5164C11.5884 17.4629 11.5615 17.4014 11.5428 17.3319C11.5238 17.2624 11.5145 17.19 11.5145 17.1146C11.5145 17.0179 11.5589 16.9233 11.6476 16.8308C11.7364 16.7384 11.848 16.653 11.9825 16.5746C12.1168 16.4963 12.2647 16.4278 12.4261 16.3693C12.5875 16.3107 12.7433 16.2693 12.8939 16.2448ZM13.4828 18.4318L13.4506 18.437C13.3376 18.4554 13.2273 18.4774 13.1198 18.503C13.0121 18.5286 12.9167 18.5644 12.8334 18.6102C12.7499 18.6561 12.6842 18.7111 12.6357 18.7755C12.5874 18.8399 12.5632 18.9204 12.5632 19.0172C12.5632 19.1356 12.5926 19.2169 12.6519 19.2609C12.7111 19.3051 12.7862 19.3197 12.8778 19.3048C12.9423 19.2943 13.0095 19.2646 13.0795 19.2154C13.1493 19.1665 13.2138 19.1036 13.2731 19.0266C13.3322 18.9498 13.382 18.8624 13.4223 18.7643C13.4626 18.6664 13.4829 18.5663 13.4829 18.4641L13.4828 18.4318Z" fill="url(#paint11_linear_1_1236)"/>
<path d="M16.1212 13.5742C16.2932 13.5462 16.441 13.5571 16.5648 13.6068C16.6884 13.6566 16.7504 13.7379 16.7504 13.8508V19.1185C16.7504 19.2153 16.6884 19.3141 16.5648 19.415C16.441 19.5158 16.2931 19.5802 16.1212 19.6082C15.9382 19.638 15.789 19.622 15.6735 19.5601C15.5578 19.4983 15.5 19.419 15.5 19.3222V14.0545C15.5 13.9416 15.5577 13.8408 15.6735 13.752C15.789 13.6633 15.9383 13.604 16.1212 13.5742Z" fill="url(#paint12_linear_1_1236)"/>
<path d="M20.0411 16.6873L21.1462 18.0561C21.1893 18.119 21.2108 18.18 21.2108 18.2391C21.2108 18.3145 21.1878 18.3921 21.1423 18.4721C21.0965 18.5523 21.0374 18.6278 20.9648 18.6988C20.8922 18.7698 20.8141 18.8309 20.7309 18.8821C20.6474 18.9333 20.5681 18.9651 20.4929 18.9773C20.3638 18.9983 20.2643 18.9634 20.1944 18.8726L19.2184 17.5876L18.807 18.0339V18.7841C18.807 18.8808 18.7451 18.9796 18.6215 19.0804C18.4976 19.1813 18.3471 19.2461 18.1697 19.275C17.9923 19.3039 17.8456 19.2875 17.73 19.2256C17.6143 19.1638 17.5566 19.0844 17.5566 18.9877V13.72C17.5566 13.6071 17.6143 13.5063 17.73 13.4174C17.8456 13.3288 17.9922 13.2699 18.1697 13.241C18.3471 13.2121 18.4976 13.2226 18.6215 13.2723C18.7451 13.3221 18.807 13.4034 18.807 13.5164V16.6785L20.1461 15.1616C20.2106 15.0866 20.2913 15.0412 20.3881 15.0254C20.4579 15.0141 20.5279 15.0216 20.5978 15.0478C20.6676 15.074 20.7322 15.1105 20.7914 15.1574C20.8505 15.2042 20.899 15.2609 20.9366 15.3274C20.9741 15.3939 20.9931 15.4594 20.9931 15.5239C20.9931 15.6046 20.9608 15.6824 20.8963 15.7574L20.0411 16.6873Z" fill="url(#paint13_linear_1_1236)"/>
<path d="M22.2265 17.4196C22.3932 17.3924 22.5372 17.4294 22.6582 17.5307C22.7792 17.6321 22.8397 17.7687 22.8397 17.9408C22.8397 18.1076 22.7791 18.2626 22.6582 18.406C22.5372 18.5495 22.3932 18.6348 22.2265 18.6619C22.0491 18.6908 21.9012 18.6531 21.7829 18.5486C21.6646 18.4442 21.6055 18.3086 21.6055 18.1419C21.6055 17.9698 21.6646 17.8136 21.7829 17.6733C21.9012 17.533 22.0491 17.4484 22.2265 17.4196ZM22.7993 13.1153C22.7993 13.3574 22.7939 13.6204 22.7832 13.9044C22.7723 14.1886 22.759 14.4785 22.7428 14.7742C22.7268 15.07 22.7132 15.3598 22.7025 15.6439C22.6917 15.9281 22.6863 16.1911 22.6863 16.4331C22.6863 16.5569 22.6325 16.6557 22.525 16.7296C22.4174 16.8036 22.3153 16.8484 22.2185 16.8642C22.0895 16.8852 21.9777 16.8752 21.8837 16.8341C21.7896 16.793 21.7426 16.7107 21.7426 16.5869C21.7426 16.3449 21.7371 16.0836 21.7264 15.803C21.7155 15.5224 21.7022 15.237 21.6861 14.9464C21.6699 14.656 21.6565 14.3704 21.6457 14.0899C21.635 13.8093 21.6297 13.548 21.6297 13.3059C21.6297 13.1501 21.6862 13.0199 21.7991 12.9154C21.912 12.811 22.0518 12.7451 22.2185 12.7179C22.3744 12.6926 22.5102 12.7136 22.6259 12.7807C22.7415 12.8479 22.7993 12.9594 22.7993 13.1153Z" fill="url(#paint14_linear_1_1236)"/>
<path d="M0 13.9389C0 15.8449 0.544 17.6418 1.50612 19.2218C2.60694 21.0297 2.03531 23.4009 0.231187 24.5078C0.218312 24.5157 0.205437 24.5236 0.1925 24.5313C-0.115813 24.7177 -0.03825 25.1874 0.315125 25.2568C0.678875 25.3281 1.05444 25.3662 1.43963 25.3662C3.18506 25.3662 4.75081 24.5981 5.81831 23.3819C7.95525 24.6338 10.5386 25.3662 13.3216 25.3662C20.6789 25.3662 26.6431 20.2501 26.6431 13.9389C26.6431 13.7084 26.6342 13.4796 26.6185 13.2524H0.024625C0.0089375 13.4796 0 13.7084 0 13.9389Z" fill="url(#paint15_linear_1_1236)"/>
<path d="M13.3216 2.51221C11.6084 2.51221 9.97105 2.78983 8.46667 3.29514V24.5833C9.97099 25.0888 11.6083 25.3668 13.3216 25.3668C20.6789 25.3668 26.6431 20.2506 26.6431 13.9395C26.6431 7.6284 20.6789 2.51221 13.3216 2.51221Z" fill="url(#paint16_linear_1_1236)"/>
<path d="M13.3216 2.51221C11.6084 2.51221 9.97105 2.78983 8.46667 3.29514V24.5833C9.97099 25.0888 11.6083 25.3668 13.3216 25.3668C20.6789 25.3668 26.6431 20.2506 26.6431 13.9395C26.6431 7.6284 20.6789 2.51221 13.3216 2.51221Z" fill="url(#paint17_linear_1_1236)"/>
</g>
<defs>
<linearGradient id="paint0_linear_1_1236" x1="17.6929" y1="13.6875" x2="23.6409" y2="25.9177" gradientUnits="userSpaceOnUse">
<stop stop-color="#FEF0AE"/>
<stop offset="1" stop-color="#FAC600"/>
</linearGradient>
<linearGradient id="paint1_linear_1_1236" x1="20.6492" y1="22.6541" x2="20.6492" y2="29.5452" gradientUnits="userSpaceOnUse">
<stop stop-color="#FE9738" stop-opacity="0"/>
<stop offset="1" stop-color="#FE9738"/>
</linearGradient>
<linearGradient id="paint2_linear_1_1236" x1="24.964" y1="20.1685" x2="31.7808" y2="20.9036" gradientUnits="userSpaceOnUse">
<stop stop-color="#FE9738" stop-opacity="0"/>
<stop offset="1" stop-color="#FE9738"/>
</linearGradient>
<linearGradient id="paint3_linear_1_1236" x1="25.7705" y1="23.9492" x2="17.0156" y2="16.7983" gradientUnits="userSpaceOnUse">
<stop stop-color="#C41926" stop-opacity="0"/>
<stop offset="0.3626" stop-color="#BF1C27" stop-opacity="0.363"/>
<stop offset="0.8" stop-color="#B12529" stop-opacity="0.8"/>
<stop offset="1" stop-color="#A72B2B"/>
</linearGradient>
<linearGradient id="paint4_linear_1_1236" x1="6.22688" y1="7.30433" x2="18.4762" y2="25.6783" gradientUnits="userSpaceOnUse">
<stop stop-color="#FE5694"/>
<stop offset="1" stop-color="#E41F2D"/>
</linearGradient>
<linearGradient id="paint5_linear_1_1236" x1="5.01222" y1="11.3831" x2="8.04191" y2="28.1356" gradientUnits="userSpaceOnUse">
<stop stop-color="#F5FBFF"/>
<stop offset="1" stop-color="#91DCFA"/>
</linearGradient>
<linearGradient id="paint6_linear_1_1236" x1="9.01272" y1="10.6602" x2="12.0425" y2="27.4127" gradientUnits="userSpaceOnUse">
<stop stop-color="#F5FBFF"/>
<stop offset="1" stop-color="#91DCFA"/>
</linearGradient>
<linearGradient id="paint7_linear_1_1236" x1="12.6285" y1="10.0053" x2="15.6582" y2="26.7578" gradientUnits="userSpaceOnUse">
<stop stop-color="#F5FBFF"/>
<stop offset="1" stop-color="#91DCFA"/>
</linearGradient>
<linearGradient id="paint8_linear_1_1236" x1="15.2632" y1="9.52942" x2="18.2929" y2="26.2819" gradientUnits="userSpaceOnUse">
<stop stop-color="#F5FBFF"/>
<stop offset="1" stop-color="#91DCFA"/>
</linearGradient>
<linearGradient id="paint9_linear_1_1236" x1="17.1154" y1="9.1948" x2="20.1452" y2="25.9473" gradientUnits="userSpaceOnUse">
<stop stop-color="#F5FBFF"/>
<stop offset="1" stop-color="#91DCFA"/>
</linearGradient>
<linearGradient id="paint10_linear_1_1236" x1="8.86212" y1="10.6873" x2="11.8918" y2="27.4398" gradientUnits="userSpaceOnUse">
<stop stop-color="#F5FBFF"/>
<stop offset="1" stop-color="#91DCFA"/>
</linearGradient>
<linearGradient id="paint11_linear_1_1236" x1="11.5276" y1="10.205" x2="14.5572" y2="26.9574" gradientUnits="userSpaceOnUse">
<stop stop-color="#F5FBFF"/>
<stop offset="1" stop-color="#91DCFA"/>
</linearGradient>
<linearGradient id="paint12_linear_1_1236" x1="14.8626" y1="9.60271" x2="17.8923" y2="26.3551" gradientUnits="userSpaceOnUse">
<stop stop-color="#F5FBFF"/>
<stop offset="1" stop-color="#91DCFA"/>
</linearGradient>
<linearGradient id="paint13_linear_1_1236" x1="17.7956" y1="9.07269" x2="20.8253" y2="25.8251" gradientUnits="userSpaceOnUse">
<stop stop-color="#F5FBFF"/>
<stop offset="1" stop-color="#91DCFA"/>
</linearGradient>
<linearGradient id="paint14_linear_1_1236" x1="20.9138" y1="8.50794" x2="23.9436" y2="25.2604" gradientUnits="userSpaceOnUse">
<stop stop-color="#F5FBFF"/>
<stop offset="1" stop-color="#91DCFA"/>
</linearGradient>
<linearGradient id="paint15_linear_1_1236" x1="13.3216" y1="17.3273" x2="13.3216" y2="25.4152" gradientUnits="userSpaceOnUse">
<stop stop-color="#C41926" stop-opacity="0"/>
<stop offset="0.3626" stop-color="#BF1C27" stop-opacity="0.363"/>
<stop offset="0.8" stop-color="#B12529" stop-opacity="0.8"/>
<stop offset="1" stop-color="#A72B2B"/>
</linearGradient>
<linearGradient id="paint16_linear_1_1236" x1="16.7729" y1="16.4941" x2="21.7369" y2="22.4953" gradientUnits="userSpaceOnUse">
<stop stop-color="#C41926" stop-opacity="0"/>
<stop offset="0.3626" stop-color="#BF1C27" stop-opacity="0.363"/>
<stop offset="0.8" stop-color="#B12529" stop-opacity="0.8"/>
<stop offset="1" stop-color="#A72B2B"/>
</linearGradient>
<linearGradient id="paint17_linear_1_1236" x1="18.5751" y1="15.1782" x2="26.4285" y2="17.0305" gradientUnits="userSpaceOnUse">
<stop stop-color="#C41926" stop-opacity="0"/>
<stop offset="0.3626" stop-color="#BF1C27" stop-opacity="0.363"/>
<stop offset="0.8" stop-color="#B12529" stop-opacity="0.8"/>
<stop offset="1" stop-color="#A72B2B"/>
</linearGradient>
<clipPath id="clip0_1_1236">
<rect width="32" height="32" fill="white" transform="translate(0 0.00830078)"/>
</clipPath>
</defs>
</svg>
