<svg width="32" height="33" viewBox="0 0 32 33" fill="none" xmlns="http://www.w3.org/2000/svg">
<g clip-path="url(#clip0_1_1288)">
<path d="M13.7363 24.4146H18.2655V31.4673H13.7363V24.4146Z" fill="url(#paint0_linear_1_1288)"/>
<path d="M13.7363 24.4146H18.2655V31.4673H13.7363V24.4146Z" fill="url(#paint1_linear_1_1288)"/>
<path d="M13.7363 24.4146H18.2655V31.4673H13.7363V24.4146Z" fill="url(#paint2_linear_1_1288)"/>
<path d="M0 24.4264V5.61311C0 4.72249 0.722 4.00049 1.61263 4.00049H30.3874C31.278 4.00049 32 4.72249 32 5.61311V24.4264C32 25.3171 0 25.3171 0 24.4264Z" fill="url(#paint3_linear_1_1288)"/>
<path d="M1.61263 4.00049H9.22213V9.96174H0V5.61311C0 4.72249 0.722 4.00049 1.61263 4.00049Z" fill="url(#paint4_linear_1_1288)"/>
<path d="M30.3868 4.00049H22.7773V25.0379C27.9732 24.9461 31.9995 24.7423 31.9995 24.4264V5.61311C31.9995 4.72249 31.2775 4.00049 30.3868 4.00049Z" fill="url(#paint5_linear_1_1288)"/>
<path d="M30.3868 4.00049H22.7773V9.96174H31.9995V5.61311C31.9995 4.72249 31.2775 4.00049 30.3868 4.00049Z" fill="url(#paint6_linear_1_1288)"/>
<path d="M0 22.0024V24.4262C0 25.3168 0.722 26.0388 1.61263 26.0388H30.3874C31.278 26.0388 32 25.3168 32 24.4262V22.0024H0Z" fill="url(#paint7_linear_1_1288)"/>
<path d="M29.4041 20.5436H2.59306C1.85563 20.5436 1.25781 19.9458 1.25781 19.2083V6.64238C1.25781 5.90494 1.85563 5.30713 2.59306 5.30713H29.404C30.1414 5.30713 30.7393 5.90494 30.7393 6.64238V19.2083C30.7393 19.9458 30.1415 20.5436 29.4041 20.5436Z" fill="url(#paint8_linear_1_1288)"/>
<path d="M9.08063 5.30713H2.59306C1.85563 5.30713 1.25781 5.90494 1.25781 6.64244V19.2084C1.25781 19.9458 1.85563 20.5437 2.59306 20.5437H9.08063V5.30713Z" fill="url(#paint9_linear_1_1288)"/>
<path d="M29.4041 5.30713H2.59306C1.85563 5.30713 1.25781 5.90494 1.25781 6.64244V13.335H30.7393V6.64238C30.7393 5.90494 30.1415 5.30713 29.4041 5.30713Z" fill="url(#paint10_linear_1_1288)"/>
<path d="M29.4064 5.30713H27.3125V20.5436H29.4064C30.1438 20.5436 30.7416 19.9458 30.7416 19.2083V6.64238C30.7416 5.90494 30.1438 5.30713 29.4064 5.30713Z" fill="url(#paint11_linear_1_1288)"/>
<path d="M20.633 32.0079H11.3661C10.8414 32.0079 10.416 31.5825 10.416 31.0578V30.5368C10.416 29.4802 11.2726 28.6235 12.3293 28.6235H19.6699C20.7265 28.6235 21.5831 29.4801 21.5831 30.5368V31.0578C21.5831 31.5825 21.1577 32.0079 20.633 32.0079Z" fill="url(#paint12_linear_1_1288)"/>
<path d="M0 22.0024V24.4262C0 25.3168 0.722 26.0388 1.61263 26.0388H30.3874C31.278 26.0388 32 25.3168 32 24.4262V22.0024H0Z" fill="url(#paint13_linear_1_1288)"/>
<path d="M22.7773 26.0388H30.3868C31.2775 26.0388 31.9995 25.3168 31.9995 24.4262V22.0024H22.7773V26.0388Z" fill="url(#paint14_linear_1_1288)"/>
<path d="M19.6716 28.6235H17.8047V32.0079H20.6347C21.1594 32.0079 21.5848 31.5825 21.5848 31.0578V30.5368C21.5848 29.4801 20.7282 28.6235 19.6716 28.6235Z" fill="url(#paint15_linear_1_1288)"/>
<path d="M3.6582 2.79541H28.3416V20.5443H3.6582V2.79541Z" fill="url(#paint16_linear_1_1288)"/>
<path d="M27.0065 0.00830078H4.99358C4.25614 0.00830078 3.65833 0.606113 3.65833 1.34361V3.24011H28.3417V1.34361C28.3417 0.606113 27.7439 0.00830078 27.0065 0.00830078Z" fill="url(#paint17_linear_1_1288)"/>
<path d="M6.53129 2.34554C6.9464 2.34554 7.28291 2.00902 7.28291 1.59391C7.28291 1.1788 6.9464 0.842285 6.53129 0.842285C6.11618 0.842285 5.77966 1.1788 5.77966 1.59391C5.77966 2.00902 6.11618 2.34554 6.53129 2.34554Z" fill="url(#paint18_linear_1_1288)"/>
<path d="M8.87284 2.34554C9.28795 2.34554 9.62446 2.00902 9.62446 1.59391C9.62446 1.1788 9.28795 0.842285 8.87284 0.842285C8.45773 0.842285 8.12122 1.1788 8.12122 1.59391C8.12122 2.00902 8.45773 2.34554 8.87284 2.34554Z" fill="url(#paint19_linear_1_1288)"/>
<path d="M11.2146 2.34554C11.6297 2.34554 11.9663 2.00902 11.9663 1.59391C11.9663 1.1788 11.6297 0.842285 11.2146 0.842285C10.7995 0.842285 10.463 1.1788 10.463 1.59391C10.463 2.00902 10.7995 2.34554 11.2146 2.34554Z" fill="url(#paint20_linear_1_1288)"/>
<path d="M12.9277 8.95655C12.9277 10.0944 12.4663 11.1246 11.721 11.87C11.6823 11.9087 11.6427 11.9469 11.6021 11.9837H6.01306C5.19794 11.2312 4.6875 10.1538 4.6875 8.95655C4.6875 7.81874 5.14887 6.78849 5.89419 6.04311C6.6395 5.2978 7.66981 4.83643 8.80763 4.83643C9.94544 4.83643 10.9757 5.2978 11.7211 6.04311C12.4663 6.78849 12.9277 7.81874 12.9277 8.95655Z" fill="url(#paint21_linear_1_1288)"/>
<path d="M10.4802 6.96729L9.4375 8.00997V11.9843H11.6017C11.6422 11.9475 11.6819 11.9093 11.7206 11.8706C12.3698 11.2213 12.8034 10.3559 12.9045 9.3916L10.4802 6.96729Z" fill="url(#paint22_linear_1_1288)"/>
<path d="M9.72984 10.7134H7.88291C7.03347 10.7134 6.30747 11.2397 6.01172 11.9838C6.74616 12.6621 7.72778 13.0768 8.80641 13.0768C9.88503 13.0768 10.8667 12.6621 11.6011 11.9838C11.3053 11.2397 10.5793 10.7134 9.72984 10.7134Z" fill="url(#paint23_linear_1_1288)"/>
<path d="M9.72983 10.7134H8.10352V13.0168C8.33195 13.0561 8.56677 13.0768 8.80639 13.0768C9.88502 13.0768 10.8666 12.6621 11.6011 11.9838C11.3053 11.2397 10.5793 10.7134 9.72983 10.7134Z" fill="url(#paint24_linear_1_1288)"/>
<path d="M11.602 11.9838C11.3063 11.2397 10.5803 10.7134 9.73081 10.7134H7.88387C7.82294 10.7134 7.76269 10.7163 7.70312 10.7216L9.90913 12.9276C10.5496 12.7502 11.1274 12.4221 11.602 11.9838Z" fill="url(#paint25_linear_1_1288)"/>
<path d="M11.0243 11.1841H6.58859C6.33547 11.3968 6.13591 11.6708 6.01172 11.9831C6.74616 12.6615 7.72778 13.0761 8.80641 13.0761C9.88503 13.0761 10.8667 12.6615 11.6011 11.9831C11.477 11.6708 11.2774 11.3968 11.0243 11.1841Z" fill="url(#paint26_linear_1_1288)"/>
<path d="M7.13245 6.96693C6.20845 7.89093 6.20845 9.38911 7.13245 10.3131C8.05645 11.2371 9.55464 11.2371 10.4786 10.3131C11.4026 9.38911 11.4026 7.89093 10.4786 6.96693C9.55464 6.04293 8.05645 6.04293 7.13245 6.96693Z" fill="url(#paint27_linear_1_1288)"/>
<path d="M10.0875 6.65088L6.81665 9.92175C7.23796 10.5741 7.97134 11.0059 8.80559 11.0059C10.1123 11.0059 11.1717 9.9465 11.1717 8.63982C11.1717 7.80557 10.7398 7.07219 10.0875 6.65088Z" fill="url(#paint28_linear_1_1288)"/>
<path d="M6.43945 8.64066C6.43945 9.94741 7.49883 11.0067 8.80552 11.0067C10.1123 11.0067 11.1716 9.94735 11.1716 8.64066C11.1716 8.49885 11.1591 8.36004 11.1351 8.2251H6.47577C6.45195 8.36004 6.43945 8.49885 6.43945 8.64066Z" fill="url(#paint29_linear_1_1288)"/>
<path d="M19.4919 8.60049H15.7939C15.2648 8.60049 14.8359 8.17161 14.8359 7.64255V5.79436C14.8359 5.2653 15.2648 4.83643 15.7939 4.83643H19.4919C20.0209 4.83643 20.4498 5.2653 20.4498 5.79436V7.64255C20.4498 8.17161 20.0209 8.60049 19.4919 8.60049Z" fill="url(#paint30_linear_1_1288)"/>
<path d="M18.7946 6.25049H16.4922C16.2332 6.25049 16.0234 6.46036 16.0234 6.71924C16.0234 6.97811 16.2332 7.18799 16.4922 7.18799H18.7946C19.0536 7.18799 19.2634 6.97811 19.2634 6.71924C19.2634 6.46036 19.0536 6.25049 18.7946 6.25049Z" fill="url(#paint31_linear_1_1288)"/>
<path d="M26.3532 8.60049H22.6552C22.1261 8.60049 21.6973 8.17161 21.6973 7.64255V5.79436C21.6973 5.2653 22.1261 4.83643 22.6552 4.83643H26.3532C26.8823 4.83643 27.3111 5.2653 27.3111 5.79436V7.64255C27.3111 8.17161 26.8823 8.60049 26.3532 8.60049Z" fill="url(#paint32_linear_1_1288)"/>
<path d="M25.6541 6.25049H23.3516C23.0926 6.25049 22.8828 6.46036 22.8828 6.71924C22.8828 6.97811 23.0926 7.18799 23.3516 7.18799H25.6541C25.913 7.18799 26.1228 6.97811 26.1228 6.71924C26.1228 6.46036 25.913 6.25049 25.6541 6.25049Z" fill="url(#paint33_linear_1_1288)"/>
<path d="M25.8912 9.93408H16.4922C16.2332 9.93408 16.0234 10.144 16.0234 10.4028C16.0234 10.6617 16.2332 10.8716 16.4922 10.8716H25.8912C26.1501 10.8716 26.3599 10.6617 26.3599 10.4028C26.3599 10.144 26.1501 9.93408 25.8912 9.93408Z" fill="url(#paint34_linear_1_1288)"/>
<path d="M21.4643 12.1392H16.4922C16.2332 12.1392 16.0234 12.349 16.0234 12.6079C16.0234 12.8668 16.2332 13.0767 16.4922 13.0767H21.4643C21.7232 13.0767 21.933 12.8668 21.933 12.6079C21.933 12.349 21.7232 12.1392 21.4643 12.1392Z" fill="url(#paint35_linear_1_1288)"/>
<path d="M3.65833 14.5474H28.3417V20.5437H3.65833V14.5474Z" fill="url(#paint36_linear_1_1288)"/>
<path d="M23.2477 19.4705H19.6682C18.7469 19.4705 18 18.7236 18 17.8023V17.2879C18 16.3666 18.7469 15.6196 19.6682 15.6196H23.2477C24.1691 15.6196 24.916 16.3665 24.916 17.2879V17.8023C24.916 18.7236 24.1691 19.4705 23.2477 19.4705Z" fill="url(#paint37_linear_1_1288)"/>
<path d="M23.2477 19.4705H19.6682C18.7469 19.4705 18 18.7236 18 17.8023V17.2879C18 16.3666 18.7469 15.6196 19.6682 15.6196H23.2477C24.1691 15.6196 24.916 16.3665 24.916 17.2879V17.8023C24.916 18.7236 24.1691 19.4705 23.2477 19.4705Z" fill="url(#paint38_linear_1_1288)"/>
<path d="M23.2477 15.6196H20.8342V19.4705H23.2477C24.169 19.4705 24.916 18.7236 24.916 17.8023V17.2879C24.916 16.3665 24.1691 15.6196 23.2477 15.6196Z" fill="url(#paint39_linear_1_1288)"/>
<path d="M8.46716 28.2581H12.7147C15.7795 28.2581 18.2639 25.7737 18.2639 22.7089C18.2639 19.6442 15.7795 17.1598 12.7147 17.1598H11.1922C10.675 17.1598 10.1924 16.9001 9.90753 16.4684L9.55003 15.9268C9.27978 15.5173 8.67897 15.5173 8.40866 15.9268L7.88697 16.7172C7.67784 17.0341 7.35772 17.2578 6.99166 17.3585C4.64316 18.0046 2.91797 20.1551 2.91797 22.7089C2.91797 25.7736 5.40241 28.2581 8.46716 28.2581Z" fill="url(#paint40_linear_1_1288)"/>
<path d="M12.7141 17.1597H11.1915C10.6743 17.1597 10.1918 16.9001 9.90688 16.4684L9.54944 15.9267C9.50475 15.8591 9.45044 15.8036 9.39062 15.7583V28.2581H12.7141C15.7788 28.2581 18.2633 25.7737 18.2633 22.7089C18.2633 19.6442 15.7788 17.1597 12.7141 17.1597Z" fill="url(#paint41_linear_1_1288)"/>
<path d="M2.91797 22.7097C2.91797 25.7744 5.40241 28.2589 8.46716 28.2589H12.7147C15.7795 28.2589 18.2639 25.7744 18.2639 22.7097C18.2639 22.1874 18.1902 21.6827 18.0553 21.2036H3.12603C2.99122 21.6827 2.91797 22.1875 2.91797 22.7097Z" fill="url(#paint42_linear_1_1288)"/>
<path d="M12.5395 18.8032L7.50781 23.4404V26.0164L9.74969 28.2583H12.7156C15.2283 28.2583 17.3506 26.5881 18.0338 24.2974L12.5395 18.8032Z" fill="url(#paint43_linear_1_1288)"/>
<path d="M11.7201 21.0785L11.9133 20.7982C12.1616 20.4059 12.3885 20.0008 12.5922 19.5836C12.7868 19.185 12.6117 18.7042 12.2076 18.5217C12.161 18.5005 12.1135 18.4846 12.0659 18.4732C11.734 18.3937 11.3805 18.5382 11.2022 18.8432C11.158 18.9188 11.1045 19.004 11.0436 19.096C10.6425 19.702 10.1599 20.2462 9.61377 20.7183C9.57727 20.7469 9.54239 20.7753 9.51002 20.8033C9.01945 21.2271 8.39127 21.4581 7.74308 21.4581C7.54952 21.4581 7.39258 21.615 7.39258 21.8086V25.7573C7.39258 25.9509 7.54952 26.1078 7.74308 26.1078H8.11683C8.34852 26.1078 8.57639 26.1667 8.77933 26.2788C8.94745 26.3714 9.12558 26.442 9.3102 26.4895C9.49427 26.5366 9.68433 26.5612 9.87627 26.5612H12.5755V21.0787L11.7201 21.0785Z" fill="url(#paint44_linear_1_1288)"/>
<path d="M12.5756 21.0786V26.5611H9.87633C9.68439 26.5611 9.49433 26.5366 9.31026 26.4894C9.12564 26.4419 8.94751 26.3714 8.77939 26.2788C8.57645 26.1666 8.34858 26.1078 8.11689 26.1078H7.74314C7.54958 26.1078 7.39264 25.9509 7.39264 25.7573V21.8086C7.39264 21.615 7.54958 21.4581 7.74314 21.4581C8.23295 21.4581 8.71158 21.3261 9.1277 21.0786H12.5756Z" fill="url(#paint45_linear_1_1288)"/>
<path d="M12.5922 19.5836C12.7868 19.185 12.6117 18.7042 12.2076 18.5217C12.161 18.5005 12.1135 18.4846 12.0659 18.4732C11.734 18.3937 11.3805 18.5382 11.2022 18.8432C11.158 18.9188 11.1045 19.004 11.0436 19.096C10.6425 19.702 10.1599 20.2462 9.61377 20.7183C9.57727 20.7469 9.54239 20.7753 9.51002 20.8033C9.01945 21.2271 8.39127 21.4581 7.74308 21.4581C7.54952 21.4581 7.39258 21.615 7.39258 21.8086V24.6173C7.70327 24.7287 8.0382 24.7896 8.38739 24.7896C9.78333 24.7896 10.9525 23.819 11.2568 22.5158L11.7201 21.0785L11.9133 20.7982C12.1616 20.4058 12.3885 20.0007 12.5922 19.5836Z" fill="url(#paint46_linear_1_1288)"/>
<path d="M11.7215 21.0785L11.7218 21.0784L11.9147 20.7982C12.163 20.4059 12.3899 20.0008 12.5936 19.5836C12.7882 19.185 12.6131 18.7042 12.209 18.5217C12.1624 18.5005 12.1149 18.4846 12.0673 18.4732C11.7354 18.3937 11.3819 18.5382 11.2036 18.8432C11.1594 18.9188 11.1059 19.004 11.045 19.096C10.5375 19.8627 9.90016 20.5308 9.16797 21.0785H11.7215Z" fill="url(#paint47_linear_1_1288)"/>
<path d="M7.39258 23.3521V25.7572C7.39258 25.9508 7.54952 26.1077 7.74308 26.1077H8.11683C8.34852 26.1077 8.57639 26.1666 8.77933 26.2787C8.94745 26.3713 9.12558 26.4419 9.3102 26.4894C9.49427 26.5365 9.68433 26.5611 9.87627 26.5611H12.5755V23.3521H7.39258Z" fill="url(#paint48_linear_1_1288)"/>
<path d="M10.2383 21.7761C10.2383 21.3909 10.5505 21.0786 10.9357 21.0786H12.9677C13.3362 21.0786 13.6448 21.4094 13.6448 21.7758C13.6448 22.426 13.1959 22.4713 13.1661 22.4736H13.1644H10.9357C10.5505 22.4735 10.2383 22.1612 10.2383 21.7761Z" fill="url(#paint49_linear_1_1288)"/>
<path d="M12.9685 21.0786H12.0566V22.4736H13.1653H13.167C13.1967 22.4712 13.6457 22.426 13.6457 21.7758C13.6456 21.4094 13.337 21.0786 12.9685 21.0786Z" fill="url(#paint50_linear_1_1288)"/>
<path d="M10.2383 23.1706C10.2383 22.7854 10.5505 22.4731 10.9357 22.4731H13.1143C13.4828 22.4731 13.7915 22.804 13.7915 23.1703C13.7915 23.8205 13.3425 23.8658 13.3127 23.8681H13.311H10.9357C10.5505 23.868 10.2383 23.5558 10.2383 23.1706Z" fill="url(#paint51_linear_1_1288)"/>
<path d="M13.1152 22.4731H12.0566V23.8681H13.3119H13.3136C13.3433 23.8658 13.7923 23.8205 13.7923 23.1703C13.7923 22.804 13.4836 22.4731 13.1152 22.4731Z" fill="url(#paint52_linear_1_1288)"/>
<path d="M10.2383 24.5651C10.2383 24.1799 10.5505 23.8677 10.9357 23.8677H12.9677C13.3362 23.8677 13.6448 24.1985 13.6448 24.5649C13.6448 25.2151 13.1959 25.2604 13.1661 25.2626H13.1644H10.9357C10.5505 25.2626 10.2383 24.9503 10.2383 24.5651Z" fill="url(#paint53_linear_1_1288)"/>
<path d="M12.9685 23.8677H12.0566V25.2626H13.1653H13.167C13.1967 25.2603 13.6457 25.2151 13.6457 24.5649C13.6456 24.1985 13.337 23.8677 12.9685 23.8677Z" fill="url(#paint54_linear_1_1288)"/>
<path d="M10.2383 25.9616C10.2383 25.5764 10.5505 25.2642 10.9357 25.2642H12.7308C13.0992 25.2642 13.4079 25.595 13.4079 25.9613C13.4079 26.6115 12.959 26.6568 12.9292 26.6591H12.9275H10.9357C10.5505 26.6591 10.2383 26.3468 10.2383 25.9616Z" fill="url(#paint55_linear_1_1288)"/>
<path d="M12.7304 25.2642H11.6719V26.6591H12.9271H12.9288C12.9586 26.6568 13.4076 26.6115 13.4076 25.9613C13.4076 25.595 13.0988 25.2642 12.7304 25.2642Z" fill="url(#paint56_linear_1_1288)"/>
</g>
<defs>
<linearGradient id="paint0_linear_1_1288" x1="14.8802" y1="27.9409" x2="17.3896" y2="27.9409" gradientUnits="userSpaceOnUse">
<stop stop-color="#444444"/>
<stop offset="1" stop-color="#0B1B4C"/>
</linearGradient>
<linearGradient id="paint1_linear_1_1288" x1="16.0009" y1="26.2826" x2="16.0009" y2="28.6444" gradientUnits="userSpaceOnUse">
<stop stop-color="#0B1B4C" stop-opacity="0"/>
<stop offset="0.2811" stop-color="#0C1B48" stop-opacity="0.281"/>
<stop offset="0.5663" stop-color="#101B3C" stop-opacity="0.566"/>
<stop offset="0.8525" stop-color="#161A28" stop-opacity="0.853"/>
<stop offset="1" stop-color="#1A1A1A"/>
</linearGradient>
<linearGradient id="paint2_linear_1_1288" x1="16.0009" y1="28.5276" x2="16.0009" y2="25.587" gradientUnits="userSpaceOnUse">
<stop stop-color="#0B1B4C" stop-opacity="0"/>
<stop offset="0.2811" stop-color="#0C1B48" stop-opacity="0.281"/>
<stop offset="0.5663" stop-color="#101B3C" stop-opacity="0.566"/>
<stop offset="0.8525" stop-color="#161A28" stop-opacity="0.853"/>
<stop offset="1" stop-color="#1A1A1A"/>
</linearGradient>
<linearGradient id="paint3_linear_1_1288" x1="12.9529" y1="7.76599" x2="22.4663" y2="29.9062" gradientUnits="userSpaceOnUse">
<stop stop-color="#EAF9FA"/>
<stop offset="1" stop-color="#C8EFFE"/>
</linearGradient>
<linearGradient id="paint4_linear_1_1288" x1="1.96644" y1="8.52218" x2="5.84269" y2="6.69543" gradientUnits="userSpaceOnUse">
<stop stop-color="#B3DAFE" stop-opacity="0"/>
<stop offset="0.2076" stop-color="#AFD8FE" stop-opacity="0.208"/>
<stop offset="0.4339" stop-color="#A2D3FE" stop-opacity="0.434"/>
<stop offset="0.6688" stop-color="#8CCAFE" stop-opacity="0.669"/>
<stop offset="0.9085" stop-color="#6EBDFE" stop-opacity="0.909"/>
<stop offset="1" stop-color="#60B7FF"/>
</linearGradient>
<linearGradient id="paint5_linear_1_1288" x1="29.104" y1="14.5192" x2="31.7907" y2="14.5192" gradientUnits="userSpaceOnUse">
<stop stop-color="#B3DAFE" stop-opacity="0"/>
<stop offset="0.2076" stop-color="#AFD8FE" stop-opacity="0.208"/>
<stop offset="0.4339" stop-color="#A2D3FE" stop-opacity="0.434"/>
<stop offset="0.6688" stop-color="#8CCAFE" stop-opacity="0.669"/>
<stop offset="0.9085" stop-color="#6EBDFE" stop-opacity="0.909"/>
<stop offset="1" stop-color="#60B7FF"/>
</linearGradient>
<linearGradient id="paint6_linear_1_1288" x1="30.2303" y1="6.98111" x2="28.1808" y2="6.98111" gradientUnits="userSpaceOnUse">
<stop stop-color="#B3DAFE" stop-opacity="0"/>
<stop offset="0.2076" stop-color="#AFD8FE" stop-opacity="0.208"/>
<stop offset="0.4339" stop-color="#A2D3FE" stop-opacity="0.434"/>
<stop offset="0.6688" stop-color="#8CCAFE" stop-opacity="0.669"/>
<stop offset="0.9085" stop-color="#6EBDFE" stop-opacity="0.909"/>
<stop offset="1" stop-color="#60B7FF"/>
</linearGradient>
<linearGradient id="paint7_linear_1_1288" x1="15.6578" y1="21.517" x2="17.0836" y2="28.913" gradientUnits="userSpaceOnUse">
<stop stop-color="#444444"/>
<stop offset="1" stop-color="#0B1B4C"/>
</linearGradient>
<linearGradient id="paint8_linear_1_1288" x1="-9.05125" y1="-26.1483" x2="26.7454" y2="29.6887" gradientUnits="userSpaceOnUse">
<stop stop-color="#D4F2F6"/>
<stop offset="1" stop-color="#03BED7"/>
</linearGradient>
<linearGradient id="paint9_linear_1_1288" x1="3.93663" y1="12.9253" x2="0.7275" y2="12.9253" gradientUnits="userSpaceOnUse">
<stop stop-color="#0199B1" stop-opacity="0"/>
<stop offset="0.9369" stop-color="#0199B1" stop-opacity="0.937"/>
<stop offset="1" stop-color="#0199B1"/>
</linearGradient>
<linearGradient id="paint10_linear_1_1288" x1="15.9986" y1="9.9325" x2="15.9986" y2="4.85013" gradientUnits="userSpaceOnUse">
<stop stop-color="#0199B1" stop-opacity="0"/>
<stop offset="0.9369" stop-color="#0199B1" stop-opacity="0.937"/>
<stop offset="1" stop-color="#0199B1"/>
</linearGradient>
<linearGradient id="paint11_linear_1_1288" x1="31.1426" y1="12.9253" x2="28.3799" y2="12.9253" gradientUnits="userSpaceOnUse">
<stop stop-color="#0199B1" stop-opacity="0"/>
<stop offset="0.9369" stop-color="#0199B1" stop-opacity="0.937"/>
<stop offset="1" stop-color="#0199B1"/>
</linearGradient>
<linearGradient id="paint12_linear_1_1288" x1="15.7058" y1="28.8895" x2="16.1958" y2="32.0083" gradientUnits="userSpaceOnUse">
<stop stop-color="#444444"/>
<stop offset="1" stop-color="#0B1B4C"/>
</linearGradient>
<linearGradient id="paint13_linear_1_1288" x1="16" y1="23.9923" x2="16" y2="26.7546" gradientUnits="userSpaceOnUse">
<stop stop-color="#0B1B4C" stop-opacity="0"/>
<stop offset="0.2811" stop-color="#0C1B48" stop-opacity="0.281"/>
<stop offset="0.5663" stop-color="#101B3C" stop-opacity="0.566"/>
<stop offset="0.8525" stop-color="#161A28" stop-opacity="0.853"/>
<stop offset="1" stop-color="#1A1A1A"/>
</linearGradient>
<linearGradient id="paint14_linear_1_1288" x1="29.104" y1="24.0206" x2="32.8917" y2="24.0206" gradientUnits="userSpaceOnUse">
<stop stop-color="#0B1B4C" stop-opacity="0"/>
<stop offset="0.2811" stop-color="#0C1B48" stop-opacity="0.281"/>
<stop offset="0.5663" stop-color="#101B3C" stop-opacity="0.566"/>
<stop offset="0.8525" stop-color="#161A28" stop-opacity="0.853"/>
<stop offset="1" stop-color="#1A1A1A"/>
</linearGradient>
<linearGradient id="paint15_linear_1_1288" x1="19.0836" y1="30.3157" x2="21.6874" y2="30.3157" gradientUnits="userSpaceOnUse">
<stop stop-color="#0B1B4C" stop-opacity="0"/>
<stop offset="0.2811" stop-color="#0C1B48" stop-opacity="0.281"/>
<stop offset="0.5663" stop-color="#101B3C" stop-opacity="0.566"/>
<stop offset="0.8525" stop-color="#161A28" stop-opacity="0.853"/>
<stop offset="1" stop-color="#1A1A1A"/>
</linearGradient>
<linearGradient id="paint16_linear_1_1288" x1="10.1524" y1="3.47966" x2="24.2761" y2="23.2618" gradientUnits="userSpaceOnUse">
<stop stop-color="#EAF9FA"/>
<stop offset="1" stop-color="#C8EFFE"/>
</linearGradient>
<linearGradient id="paint17_linear_1_1288" x1="16" y1="-0.0639492" x2="16" y2="4.70411" gradientUnits="userSpaceOnUse">
<stop stop-color="#EAF9FA"/>
<stop offset="1" stop-color="#C8EFFE"/>
</linearGradient>
<linearGradient id="paint18_linear_1_1288" x1="5.94366" y1="1.00622" x2="7.17641" y2="2.23904" gradientUnits="userSpaceOnUse">
<stop stop-color="#FFA1AE"/>
<stop offset="1" stop-color="#E41F2D"/>
</linearGradient>
<linearGradient id="paint19_linear_1_1288" x1="8.28522" y1="1.00622" x2="9.51803" y2="2.23903" gradientUnits="userSpaceOnUse">
<stop stop-color="#FFF5C6"/>
<stop offset="1" stop-color="#FAC600"/>
</linearGradient>
<linearGradient id="paint20_linear_1_1288" x1="10.627" y1="1.00622" x2="11.8598" y2="2.23904" gradientUnits="userSpaceOnUse">
<stop stop-color="#BBF49B"/>
<stop offset="1" stop-color="#0BB494"/>
</linearGradient>
<linearGradient id="paint21_linear_1_1288" x1="2.44169" y1="2.59043" x2="11.0693" y2="11.2181" gradientUnits="userSpaceOnUse">
<stop stop-color="#FFF5C6"/>
<stop offset="1" stop-color="#FAC600"/>
</linearGradient>
<linearGradient id="paint22_linear_1_1288" x1="12.2118" y1="10.0182" x2="9.988" y2="9.48279" gradientUnits="userSpaceOnUse">
<stop stop-color="#FEA613" stop-opacity="0"/>
<stop offset="0.1766" stop-color="#FDA116" stop-opacity="0.177"/>
<stop offset="0.3939" stop-color="#FA921D" stop-opacity="0.394"/>
<stop offset="0.6325" stop-color="#F4792A" stop-opacity="0.633"/>
<stop offset="0.8846" stop-color="#ED573B" stop-opacity="0.885"/>
<stop offset="1" stop-color="#E94444"/>
</linearGradient>
<linearGradient id="paint23_linear_1_1288" x1="8.40272" y1="10.3915" x2="8.92766" y2="12.462" gradientUnits="userSpaceOnUse">
<stop stop-color="#EAF9FA"/>
<stop offset="1" stop-color="#C8EFFE"/>
</linearGradient>
<linearGradient id="paint24_linear_1_1288" x1="10.0911" y1="11.7813" x2="11.5346" y2="11.6761" gradientUnits="userSpaceOnUse">
<stop stop-color="#B3DAFE" stop-opacity="0"/>
<stop offset="0.2076" stop-color="#AFD8FE" stop-opacity="0.208"/>
<stop offset="0.4339" stop-color="#A2D3FE" stop-opacity="0.434"/>
<stop offset="0.6688" stop-color="#8CCAFE" stop-opacity="0.669"/>
<stop offset="0.9085" stop-color="#6EBDFE" stop-opacity="0.909"/>
<stop offset="1" stop-color="#60B7FF"/>
</linearGradient>
<linearGradient id="paint25_linear_1_1288" x1="9.68594" y1="11.6917" x2="9.55525" y2="10.3638" gradientUnits="userSpaceOnUse">
<stop stop-color="#B3DAFE" stop-opacity="0"/>
<stop offset="0.2076" stop-color="#AFD8FE" stop-opacity="0.208"/>
<stop offset="0.4339" stop-color="#A2D3FE" stop-opacity="0.434"/>
<stop offset="0.6688" stop-color="#8CCAFE" stop-opacity="0.669"/>
<stop offset="0.9085" stop-color="#6EBDFE" stop-opacity="0.909"/>
<stop offset="1" stop-color="#60B7FF"/>
</linearGradient>
<linearGradient id="paint26_linear_1_1288" x1="8.80647" y1="12.1728" x2="8.80647" y2="13.1558" gradientUnits="userSpaceOnUse">
<stop stop-color="#B3DAFE" stop-opacity="0"/>
<stop offset="0.2076" stop-color="#AFD8FE" stop-opacity="0.208"/>
<stop offset="0.4339" stop-color="#A2D3FE" stop-opacity="0.434"/>
<stop offset="0.6688" stop-color="#8CCAFE" stop-opacity="0.669"/>
<stop offset="0.9085" stop-color="#6EBDFE" stop-opacity="0.909"/>
<stop offset="1" stop-color="#60B7FF"/>
</linearGradient>
<linearGradient id="paint27_linear_1_1288" x1="7.92527" y1="7.75974" x2="10.1958" y2="10.0303" gradientUnits="userSpaceOnUse">
<stop stop-color="#EAF9FA"/>
<stop offset="1" stop-color="#C8EFFE"/>
</linearGradient>
<linearGradient id="paint28_linear_1_1288" x1="8.91528" y1="8.74294" x2="10.5436" y2="10.2739" gradientUnits="userSpaceOnUse">
<stop stop-color="#B3DAFE" stop-opacity="0"/>
<stop offset="0.2076" stop-color="#AFD8FE" stop-opacity="0.208"/>
<stop offset="0.4339" stop-color="#A2D3FE" stop-opacity="0.434"/>
<stop offset="0.6688" stop-color="#8CCAFE" stop-opacity="0.669"/>
<stop offset="0.9085" stop-color="#6EBDFE" stop-opacity="0.909"/>
<stop offset="1" stop-color="#60B7FF"/>
</linearGradient>
<linearGradient id="paint29_linear_1_1288" x1="8.80558" y1="9.56116" x2="8.80558" y2="11.0406" gradientUnits="userSpaceOnUse">
<stop stop-color="#B3DAFE" stop-opacity="0"/>
<stop offset="0.2076" stop-color="#AFD8FE" stop-opacity="0.208"/>
<stop offset="0.4339" stop-color="#A2D3FE" stop-opacity="0.434"/>
<stop offset="0.6688" stop-color="#8CCAFE" stop-opacity="0.669"/>
<stop offset="0.9085" stop-color="#6EBDFE" stop-opacity="0.909"/>
<stop offset="1" stop-color="#60B7FF"/>
</linearGradient>
<linearGradient id="paint30_linear_1_1288" x1="10.9726" y1="-4.09651" x2="20.5954" y2="11.5056" gradientUnits="userSpaceOnUse">
<stop stop-color="#B3DAFE" stop-opacity="0"/>
<stop offset="0.2076" stop-color="#AFD8FE" stop-opacity="0.208"/>
<stop offset="0.4339" stop-color="#A2D3FE" stop-opacity="0.434"/>
<stop offset="0.6688" stop-color="#8CCAFE" stop-opacity="0.669"/>
<stop offset="0.9085" stop-color="#6EBDFE" stop-opacity="0.909"/>
<stop offset="1" stop-color="#60B7FF"/>
</linearGradient>
<linearGradient id="paint31_linear_1_1288" x1="15.007" y1="2.44474" x2="18.8103" y2="8.61124" gradientUnits="userSpaceOnUse">
<stop stop-color="#444444"/>
<stop offset="1" stop-color="#0B1B4C"/>
</linearGradient>
<linearGradient id="paint32_linear_1_1288" x1="17.8339" y1="-4.09651" x2="27.4567" y2="11.5056" gradientUnits="userSpaceOnUse">
<stop stop-color="#B3DAFE" stop-opacity="0"/>
<stop offset="0.2076" stop-color="#AFD8FE" stop-opacity="0.208"/>
<stop offset="0.4339" stop-color="#A2D3FE" stop-opacity="0.434"/>
<stop offset="0.6688" stop-color="#8CCAFE" stop-opacity="0.669"/>
<stop offset="0.9085" stop-color="#6EBDFE" stop-opacity="0.909"/>
<stop offset="1" stop-color="#60B7FF"/>
</linearGradient>
<linearGradient id="paint33_linear_1_1288" x1="21.8664" y1="2.44474" x2="25.6698" y2="8.61124" gradientUnits="userSpaceOnUse">
<stop stop-color="#444444"/>
<stop offset="1" stop-color="#0B1B4C"/>
</linearGradient>
<linearGradient id="paint34_linear_1_1288" x1="13.9794" y1="-1.29086" x2="24.3841" y2="15.5788" gradientUnits="userSpaceOnUse">
<stop stop-color="#444444"/>
<stop offset="1" stop-color="#0B1B4C"/>
</linearGradient>
<linearGradient id="paint35_linear_1_1288" x1="14.6205" y1="5.54247" x2="20.9071" y2="15.7353" gradientUnits="userSpaceOnUse">
<stop stop-color="#444444"/>
<stop offset="1" stop-color="#0B1B4C"/>
</linearGradient>
<linearGradient id="paint36_linear_1_1288" x1="11.3602" y1="0.368429" x2="17.6424" y2="23.6259" gradientUnits="userSpaceOnUse">
<stop stop-color="#B3DAFE" stop-opacity="0"/>
<stop offset="0.2076" stop-color="#AFD8FE" stop-opacity="0.208"/>
<stop offset="0.4339" stop-color="#A2D3FE" stop-opacity="0.434"/>
<stop offset="0.6688" stop-color="#8CCAFE" stop-opacity="0.669"/>
<stop offset="0.9085" stop-color="#6EBDFE" stop-opacity="0.909"/>
<stop offset="1" stop-color="#60B7FF"/>
</linearGradient>
<linearGradient id="paint37_linear_1_1288" x1="20.3179" y1="15.2395" x2="23.3253" y2="21.3212" gradientUnits="userSpaceOnUse">
<stop stop-color="#FFA1AE"/>
<stop offset="1" stop-color="#E41F2D"/>
</linearGradient>
<linearGradient id="paint38_linear_1_1288" x1="21.458" y1="17.1314" x2="21.458" y2="19.5383" gradientUnits="userSpaceOnUse">
<stop stop-color="#C41926" stop-opacity="0"/>
<stop offset="0.1758" stop-color="#C01A27" stop-opacity="0.176"/>
<stop offset="0.3761" stop-color="#B21E29" stop-opacity="0.376"/>
<stop offset="0.5886" stop-color="#9B242C" stop-opacity="0.589"/>
<stop offset="0.8079" stop-color="#7B2D31" stop-opacity="0.808"/>
<stop offset="1" stop-color="#593636"/>
</linearGradient>
<linearGradient id="paint39_linear_1_1288" x1="22.2307" y1="17.5451" x2="24.8787" y2="17.5451" gradientUnits="userSpaceOnUse">
<stop stop-color="#C41926" stop-opacity="0"/>
<stop offset="0.1758" stop-color="#C01A27" stop-opacity="0.176"/>
<stop offset="0.3761" stop-color="#B21E29" stop-opacity="0.376"/>
<stop offset="0.5886" stop-color="#9B242C" stop-opacity="0.589"/>
<stop offset="0.8079" stop-color="#7B2D31" stop-opacity="0.808"/>
<stop offset="1" stop-color="#593636"/>
</linearGradient>
<linearGradient id="paint40_linear_1_1288" x1="8.17753" y1="18.4604" x2="14.623" y2="29.8069" gradientUnits="userSpaceOnUse">
<stop stop-color="#BBF49B"/>
<stop offset="1" stop-color="#0BB494"/>
</linearGradient>
<linearGradient id="paint41_linear_1_1288" x1="12.6892" y1="22.0082" x2="18.8061" y2="22.0082" gradientUnits="userSpaceOnUse">
<stop stop-color="#00A887" stop-opacity="0"/>
<stop offset="0.3106" stop-color="#00A387" stop-opacity="0.311"/>
<stop offset="0.6639" stop-color="#009589" stop-opacity="0.664"/>
<stop offset="1" stop-color="#00818B"/>
</linearGradient>
<linearGradient id="paint42_linear_1_1288" x1="10.591" y1="23.31" x2="10.591" y2="28.0282" gradientUnits="userSpaceOnUse">
<stop stop-color="#00A887" stop-opacity="0"/>
<stop offset="0.3106" stop-color="#00A387" stop-opacity="0.311"/>
<stop offset="0.6639" stop-color="#009589" stop-opacity="0.664"/>
<stop offset="1" stop-color="#00818B"/>
</linearGradient>
<linearGradient id="paint43_linear_1_1288" x1="17.6364" y1="27.865" x2="10.0622" y2="22.808" gradientUnits="userSpaceOnUse">
<stop stop-color="#00A887" stop-opacity="0"/>
<stop offset="0.3106" stop-color="#00A387" stop-opacity="0.311"/>
<stop offset="0.6639" stop-color="#009589" stop-opacity="0.664"/>
<stop offset="1" stop-color="#00818B"/>
</linearGradient>
<linearGradient id="paint44_linear_1_1288" x1="9.21089" y1="21.0369" x2="12.6513" y2="26.9123" gradientUnits="userSpaceOnUse">
<stop stop-color="#FFDFCF"/>
<stop offset="1" stop-color="#FFA78F"/>
</linearGradient>
<linearGradient id="paint45_linear_1_1288" x1="9.46701" y1="23.3831" x2="11.1811" y2="23.9244" gradientUnits="userSpaceOnUse">
<stop stop-color="#F89580" stop-opacity="0"/>
<stop offset="0.2622" stop-color="#F3917C" stop-opacity="0.263"/>
<stop offset="0.5812" stop-color="#E48671" stop-opacity="0.583"/>
<stop offset="0.9283" stop-color="#CB755E" stop-opacity="0.931"/>
<stop offset="0.9972" stop-color="#C5715A"/>
</linearGradient>
<linearGradient id="paint46_linear_1_1288" x1="10.2796" y1="22.0006" x2="11.7898" y2="23.4605" gradientUnits="userSpaceOnUse">
<stop stop-color="#F89580" stop-opacity="0"/>
<stop offset="0.2622" stop-color="#F3917C" stop-opacity="0.263"/>
<stop offset="0.5812" stop-color="#E48671" stop-opacity="0.583"/>
<stop offset="0.9283" stop-color="#CB755E" stop-opacity="0.931"/>
<stop offset="0.9972" stop-color="#C5715A"/>
</linearGradient>
<linearGradient id="paint47_linear_1_1288" x1="11.3277" y1="20.2758" x2="12.2075" y2="20.9487" gradientUnits="userSpaceOnUse">
<stop stop-color="#F89580" stop-opacity="0"/>
<stop offset="0.2622" stop-color="#F3917C" stop-opacity="0.263"/>
<stop offset="0.5812" stop-color="#E48671" stop-opacity="0.583"/>
<stop offset="0.9283" stop-color="#CB755E" stop-opacity="0.931"/>
<stop offset="0.9972" stop-color="#C5715A"/>
</linearGradient>
<linearGradient id="paint48_linear_1_1288" x1="9.98408" y1="25.2339" x2="9.98408" y2="26.6193" gradientUnits="userSpaceOnUse">
<stop stop-color="#F89580" stop-opacity="0"/>
<stop offset="0.2622" stop-color="#F3917C" stop-opacity="0.263"/>
<stop offset="0.5812" stop-color="#E48671" stop-opacity="0.583"/>
<stop offset="0.9283" stop-color="#CB755E" stop-opacity="0.931"/>
<stop offset="0.9972" stop-color="#C5715A"/>
</linearGradient>
<linearGradient id="paint49_linear_1_1288" x1="11.9067" y1="21.2621" x2="11.9878" y2="22.4593" gradientUnits="userSpaceOnUse">
<stop stop-color="#FFDFCF"/>
<stop offset="1" stop-color="#FFA78F"/>
</linearGradient>
<linearGradient id="paint50_linear_1_1288" x1="12.8678" y1="21.9411" x2="13.5761" y2="22.3814" gradientUnits="userSpaceOnUse">
<stop stop-color="#F89580" stop-opacity="0"/>
<stop offset="0.2622" stop-color="#F3917C" stop-opacity="0.263"/>
<stop offset="0.5812" stop-color="#E48671" stop-opacity="0.583"/>
<stop offset="0.9283" stop-color="#CB755E" stop-opacity="0.931"/>
<stop offset="0.9972" stop-color="#C5715A"/>
</linearGradient>
<linearGradient id="paint51_linear_1_1288" x1="11.9798" y1="22.6533" x2="12.0615" y2="23.8581" gradientUnits="userSpaceOnUse">
<stop stop-color="#FFDFCF"/>
<stop offset="1" stop-color="#FFA78F"/>
</linearGradient>
<linearGradient id="paint52_linear_1_1288" x1="12.9531" y1="23.3431" x2="13.7088" y2="23.8128" gradientUnits="userSpaceOnUse">
<stop stop-color="#F89580" stop-opacity="0"/>
<stop offset="0.2622" stop-color="#F3917C" stop-opacity="0.263"/>
<stop offset="0.5812" stop-color="#E48671" stop-opacity="0.583"/>
<stop offset="0.9283" stop-color="#CB755E" stop-opacity="0.931"/>
<stop offset="0.9972" stop-color="#C5715A"/>
</linearGradient>
<linearGradient id="paint53_linear_1_1288" x1="11.9067" y1="24.0511" x2="11.9878" y2="25.2484" gradientUnits="userSpaceOnUse">
<stop stop-color="#FFDFCF"/>
<stop offset="1" stop-color="#FFA78F"/>
</linearGradient>
<linearGradient id="paint54_linear_1_1288" x1="12.8678" y1="24.7302" x2="13.5761" y2="25.1705" gradientUnits="userSpaceOnUse">
<stop stop-color="#F89580" stop-opacity="0"/>
<stop offset="0.2622" stop-color="#F3917C" stop-opacity="0.263"/>
<stop offset="0.5812" stop-color="#E48671" stop-opacity="0.583"/>
<stop offset="0.9283" stop-color="#CB755E" stop-opacity="0.931"/>
<stop offset="0.9972" stop-color="#C5715A"/>
</linearGradient>
<linearGradient id="paint55_linear_1_1288" x1="11.7886" y1="25.4531" x2="11.8689" y2="26.6378" gradientUnits="userSpaceOnUse">
<stop stop-color="#FFDFCF"/>
<stop offset="1" stop-color="#FFA78F"/>
</linearGradient>
<linearGradient id="paint56_linear_1_1288" x1="12.5684" y1="26.1341" x2="13.324" y2="26.6038" gradientUnits="userSpaceOnUse">
<stop stop-color="#F89580" stop-opacity="0"/>
<stop offset="0.2622" stop-color="#F3917C" stop-opacity="0.263"/>
<stop offset="0.5812" stop-color="#E48671" stop-opacity="0.583"/>
<stop offset="0.9283" stop-color="#CB755E" stop-opacity="0.931"/>
<stop offset="0.9972" stop-color="#C5715A"/>
</linearGradient>
<clipPath id="clip0_1_1288">
<rect width="32" height="32" fill="white" transform="translate(0 0.00830078)"/>
</clipPath>
</defs>
</svg>
