<svg width="32" height="33" viewBox="0 0 32 33" fill="none" xmlns="http://www.w3.org/2000/svg">
<path d="M7.40706 18.5314C11.4979 18.5314 14.8141 15.2152 14.8141 11.1243C14.8141 7.03354 11.4979 3.71729 7.40706 3.71729C3.31626 3.71729 0 7.03354 0 11.1243C0 15.2152 3.31626 18.5314 7.40706 18.5314Z" fill="url(#paint0_linear_1_1263)"/>
<path d="M14.7793 11.8388C14.6347 13.3615 14.0277 14.7501 13.1008 15.862C12.7348 16.3013 12.3191 16.6981 11.8617 17.0418L6.74733 11.9274L5.46077 10.6408C4.89077 10.1155 4.5332 9.36252 4.5332 8.52646C4.5332 6.93952 5.81977 5.65283 7.40683 5.65283C8.24289 5.65283 8.99589 6.01046 9.52114 6.58039L14.7793 11.8388Z" fill="url(#paint1_linear_1_1263)"/>
<path d="M13.1018 15.8624C12.7358 16.3017 12.3202 16.6985 11.8627 17.0422C10.6229 17.9781 9.07997 18.5321 7.40778 18.5321C7.19822 18.5321 6.99078 18.5236 6.78541 18.5055L3.37891 15.1039C3.74216 13.4666 5.07759 12.1961 6.74841 11.9279C6.96353 11.8937 7.18353 11.8755 7.40778 11.8755C8.54772 11.8755 9.57941 12.3379 10.326 13.0846L13.1018 15.8624Z" fill="url(#paint2_linear_1_1263)"/>
<path d="M7.40707 11.4001C8.99413 11.4001 10.2807 10.1135 10.2807 8.52646C10.2807 6.9394 8.99413 5.65283 7.40707 5.65283C5.82001 5.65283 4.53345 6.9394 4.53345 8.52646C4.53345 10.1135 5.82001 11.4001 7.40707 11.4001Z" fill="url(#paint3_linear_1_1263)"/>
<path d="M11.4367 15.1039C10.4106 16.144 8.98428 16.7879 7.40778 16.7879C5.83128 16.7879 4.40497 16.1439 3.37891 15.1039C3.78897 13.2564 5.43666 11.8755 7.40778 11.8755C8.54772 11.8755 9.57941 12.3379 10.326 13.0846C10.8708 13.6287 11.2642 14.3251 11.4367 15.1039Z" fill="url(#paint4_linear_1_1263)"/>
<path d="M24.5926 18.5314C28.6834 18.5314 31.9997 15.2152 31.9997 11.1243C31.9997 7.03354 28.6834 3.71729 24.5926 3.71729C20.5018 3.71729 17.1855 7.03354 17.1855 11.1243C17.1855 15.2152 20.5018 18.5314 24.5926 18.5314Z" fill="url(#paint5_linear_1_1263)"/>
<path d="M31.9648 11.8388C31.8203 13.3615 31.2132 14.7501 30.2863 15.862C29.9203 16.3013 29.5047 16.6981 29.0473 17.0418L23.9329 11.9274L22.6463 10.6408C22.0763 10.1155 21.7188 9.36252 21.7188 8.52646C21.7188 6.93952 23.0053 5.65283 24.5924 5.65283C25.4284 5.65283 26.1814 6.01046 26.7067 6.58039L31.9648 11.8388Z" fill="url(#paint6_linear_1_1263)"/>
<path d="M30.2873 15.8624C29.9213 16.3017 29.5057 16.6985 29.0483 17.0422C27.8085 17.9781 26.2655 18.5321 24.5933 18.5321C24.3838 18.5321 24.1763 18.5236 23.971 18.5055L20.5645 15.1039C20.9277 13.4666 22.2631 12.1961 23.934 11.9279C24.1491 11.8937 24.3691 11.8755 24.5933 11.8755C25.7333 11.8755 26.765 12.3379 27.5116 13.0846L30.2873 15.8624Z" fill="url(#paint7_linear_1_1263)"/>
<path d="M24.5924 11.4001C26.1794 11.4001 27.466 10.1135 27.466 8.52646C27.466 6.9394 26.1794 5.65283 24.5924 5.65283C23.0053 5.65283 21.7188 6.9394 21.7188 8.52646C21.7188 10.1135 23.0053 11.4001 24.5924 11.4001Z" fill="url(#paint8_linear_1_1263)"/>
<path d="M24.5927 18.5323C26.239 18.5323 27.7597 17.9948 28.9895 17.0863L22.7599 10.8567C21.4474 9.49954 19.7299 8.53697 17.8024 8.1626C17.4059 9.06991 17.1855 10.0717 17.1855 11.1252C17.1855 15.216 20.5017 18.5323 24.5927 18.5323Z" fill="url(#paint9_linear_1_1263)"/>
<path d="M28.6202 15.1039C27.5942 16.144 26.1679 16.7879 24.5914 16.7879C23.0149 16.7879 21.5886 16.1439 20.5625 15.1039C20.9726 13.2564 22.6202 11.8755 24.5914 11.8755C25.7313 11.8755 26.763 12.3379 27.5096 13.0846C28.0545 13.6287 28.4477 14.3251 28.6202 15.1039Z" fill="url(#paint10_linear_1_1263)"/>
<path d="M27.7385 15.8351L23.8472 11.9438C22.217 12.2414 20.9214 13.4959 20.5645 15.1046C21.5905 16.1447 23.0168 16.7886 24.5933 16.7886C25.7571 16.7887 26.8388 16.4373 27.7385 15.8351Z" fill="url(#paint11_linear_1_1263)"/>
<path d="M16.0013 26.796C21.1948 26.796 25.4049 22.5859 25.4049 17.3924C25.4049 12.1989 21.1948 7.98877 16.0013 7.98877C10.8078 7.98877 6.59766 12.1989 6.59766 17.3924C6.59766 22.5859 10.8078 26.796 16.0013 26.796Z" fill="url(#paint12_linear_1_1263)"/>
<path d="M25.3591 18.2987C25.1756 20.2319 24.405 21.9947 23.2283 23.4063C22.7637 23.9641 22.2361 24.4677 21.6552 24.9041L15.1626 18.4114L13.5292 16.778C12.8056 16.1111 12.3516 15.1553 12.3516 14.0938C12.3516 12.0791 13.9849 10.4458 15.9996 10.4458C17.061 10.4458 18.0169 10.8998 18.6838 11.6234L25.3591 18.2987Z" fill="url(#paint13_linear_1_1263)"/>
<path d="M23.23 23.4057C22.7654 23.9635 22.2378 24.4672 21.657 24.9035C20.083 26.0917 18.1242 26.7949 16.0014 26.7949C15.7353 26.7949 15.472 26.7842 15.2113 26.7612L10.8867 22.4427C11.3478 20.3642 13.0433 18.7512 15.1643 18.4107C15.4375 18.3672 15.7168 18.3442 16.0014 18.3442C17.4485 18.3442 18.7583 18.9312 19.7062 19.8792L23.23 23.4057Z" fill="url(#paint14_linear_1_1263)"/>
<path d="M15.9996 17.7418C18.0143 17.7418 19.6476 16.1085 19.6476 14.0938C19.6476 12.0791 18.0143 10.4458 15.9996 10.4458C13.9848 10.4458 12.3516 12.0791 12.3516 14.0938C12.3516 16.1085 13.9848 17.7418 15.9996 17.7418Z" fill="url(#paint15_linear_1_1263)"/>
<path d="M12.542 26.1393C13.6126 26.563 14.7793 26.7959 16.0006 26.7959C18.7484 26.7959 21.2206 25.617 22.9399 23.7379L20.8965 21.6945C20.7312 21.4987 20.4952 21.3557 20.2033 21.3133L19.281 21.1793L16.853 18.7567C16.3539 18.1666 15.3628 18.2444 14.9944 18.9909L14.2677 20.4634C14.1043 20.7946 13.7883 21.0241 13.4229 21.0772L11.7978 21.3133C10.8775 21.447 10.5101 22.578 11.176 23.2271L11.2606 23.3095C11.2753 23.3255 11.2901 23.3415 11.3059 23.357L11.3906 23.4395C11.4053 23.4555 11.42 23.4715 11.4359 23.487L11.5205 23.5695C11.5352 23.5855 11.5499 23.6015 11.5658 23.6169L11.6504 23.6994C11.6651 23.7154 11.6799 23.7314 11.6958 23.7469L11.7804 23.8294C11.7951 23.8454 11.8098 23.8614 11.8257 23.8768L11.9103 23.9593C11.925 23.9753 11.9398 23.9913 11.9556 24.0067L12.0403 24.0893C12.055 24.1053 12.0698 24.1212 12.0856 24.1367L12.1701 24.2191C12.1849 24.2351 12.1996 24.2511 12.2155 24.2666L12.3001 24.3491C12.3148 24.3651 12.3296 24.3811 12.3454 24.3965L12.4301 24.4791C12.4448 24.4951 12.4596 24.511 12.4754 24.5265L12.4974 24.5479C12.6581 24.7854 12.7239 25.078 12.6744 25.3663L12.542 26.1393Z" fill="url(#paint16_linear_1_1263)"/>
<path d="M21.1143 22.4427C19.8117 23.7631 18.0009 24.5807 15.9995 24.5807C13.9981 24.5807 12.1875 23.7631 10.8848 22.4427C11.4053 20.0973 13.4971 18.3442 15.9995 18.3442C17.4466 18.3442 18.7564 18.9312 19.7043 19.8792C20.396 20.5699 20.8952 21.4541 21.1143 22.4427Z" fill="url(#paint17_linear_1_1263)"/>
<path d="M20.2023 21.3133L19.28 21.1793L16.852 18.7567C16.3529 18.1666 15.3618 18.2444 14.9933 18.9909L14.2666 20.4634C14.1032 20.7946 13.7873 21.0241 13.4218 21.0772L11.7968 21.3133C11.5144 21.3544 11.2845 21.4895 11.12 21.6755C11.0231 21.9231 10.9435 22.1794 10.8848 22.4437C12.1873 23.7641 13.9981 24.5817 15.9995 24.5817C18.0009 24.5817 19.8116 23.7641 21.1143 22.4437C21.056 22.1807 20.9773 21.9253 20.881 21.6787C20.7164 21.4912 20.486 21.3545 20.2023 21.3133Z" fill="url(#paint18_linear_1_1263)"/>
<path d="M17.0068 18.9912L17.7335 20.4638C17.8969 20.795 18.2129 21.0245 18.5783 21.0775L20.2034 21.3137C21.1237 21.4473 21.4911 22.5783 20.8253 23.2275L19.6494 24.3737C19.3849 24.6315 19.2643 25.0028 19.3267 25.3668L19.6043 26.9853C19.7614 27.9018 18.7994 28.6008 17.9763 28.1681L16.5228 27.404C16.1959 27.2321 15.8054 27.2321 15.4785 27.404L14.025 28.1681C13.2019 28.6008 12.2398 27.9018 12.397 26.9853L12.6746 25.3668C12.737 25.0028 12.6163 24.6315 12.3519 24.3737L11.176 23.2275C10.5101 22.5783 10.8775 21.4474 11.7979 21.3137L13.4229 21.0775C13.7884 21.0245 14.1043 20.7949 14.2678 20.4638L14.9944 18.9912C15.4061 18.1572 16.5952 18.1572 17.0068 18.9912Z" fill="url(#paint19_linear_1_1263)"/>
<path d="M16.6538 20.5053L17.1269 21.4639C17.2333 21.6794 17.4389 21.8289 17.6768 21.8634L18.7347 22.0172C19.3338 22.1042 19.573 22.8404 19.1395 23.263L18.374 24.0092C18.2018 24.177 18.1232 24.4187 18.1639 24.6557L18.3446 25.7092C18.4469 26.3059 17.8207 26.7609 17.2848 26.4792L16.3387 25.9817C16.1259 25.8699 15.8717 25.8699 15.6589 25.9817L14.7127 26.4792C14.1769 26.7609 13.5506 26.3059 13.653 25.7092L13.8337 24.6557C13.8743 24.4187 13.7958 24.177 13.6236 24.0092L12.8581 23.263C12.4246 22.8404 12.6638 22.1042 13.2628 22.0172L14.3207 21.8634C14.5587 21.8289 14.7643 21.6794 14.8707 21.4639L15.3438 20.5053C15.6117 19.9624 16.3858 19.9624 16.6538 20.5053Z" fill="url(#paint20_linear_1_1263)"/>
<path d="M16.5 21.1746L16.8612 21.9062C16.9423 22.0707 17.0993 22.1848 17.2809 22.2112L18.0883 22.3286C18.5457 22.395 18.7282 22.9569 18.3973 23.2795L17.813 23.8491C17.6816 23.9771 17.6216 24.1617 17.6527 24.3426L17.7906 25.1467C17.8687 25.6022 17.3907 25.9495 16.9817 25.7345L16.2594 25.3548C16.097 25.2694 15.903 25.2694 15.7405 25.3548L15.0183 25.7345C14.6092 25.9495 14.1313 25.6022 14.2093 25.1467L14.3472 24.3426C14.3782 24.1617 14.3183 23.9771 14.1869 23.8491L13.6026 23.2795C13.2717 22.9569 13.4543 22.395 13.9115 22.3286L14.719 22.2112C14.9005 22.1848 15.0575 22.0708 15.1387 21.9062L15.4998 21.1746C15.7047 20.7602 16.2956 20.7602 16.5 21.1746Z" fill="url(#paint21_linear_1_1263)"/>
<defs>
<linearGradient id="paint0_linear_1_1263" x1="2.65819" y1="3.65658" x2="10.8851" y2="16.595" gradientUnits="userSpaceOnUse">
<stop stop-color="#62E1FB"/>
<stop offset="1" stop-color="#00A2F3"/>
</linearGradient>
<linearGradient id="paint1_linear_1_1263" x1="13.8333" y1="14.9543" x2="7.30854" y2="8.42892" gradientUnits="userSpaceOnUse">
<stop stop-color="#00A2F3" stop-opacity="0"/>
<stop offset="1" stop-color="#0075CD"/>
</linearGradient>
<linearGradient id="paint2_linear_1_1263" x1="9.57779" y1="18.3265" x2="7.5907" y2="14.1032" gradientUnits="userSpaceOnUse">
<stop stop-color="#00A2F3" stop-opacity="0"/>
<stop offset="1" stop-color="#0075CD"/>
</linearGradient>
<linearGradient id="paint3_linear_1_1263" x1="7.40691" y1="7.20247" x2="7.40691" y2="12.1887" gradientUnits="userSpaceOnUse">
<stop stop-color="white"/>
<stop offset="1" stop-color="#E2EDF2"/>
</linearGradient>
<linearGradient id="paint4_linear_1_1263" x1="7.40762" y1="13.1997" x2="7.40762" y2="17.4613" gradientUnits="userSpaceOnUse">
<stop stop-color="white"/>
<stop offset="1" stop-color="#E2EDF2"/>
</linearGradient>
<linearGradient id="paint5_linear_1_1263" x1="19.8432" y1="3.65629" x2="28.0701" y2="16.5947" gradientUnits="userSpaceOnUse">
<stop stop-color="#A7F3CE"/>
<stop offset="1" stop-color="#61DB99"/>
</linearGradient>
<linearGradient id="paint6_linear_1_1263" x1="31.0186" y1="14.9544" x2="24.4939" y2="8.42908" gradientUnits="userSpaceOnUse">
<stop stop-color="#61DB99" stop-opacity="0"/>
<stop offset="1" stop-color="#009E74"/>
</linearGradient>
<linearGradient id="paint7_linear_1_1263" x1="26.763" y1="18.3266" x2="24.7759" y2="14.1033" gradientUnits="userSpaceOnUse">
<stop stop-color="#61DB99" stop-opacity="0"/>
<stop offset="1" stop-color="#009E74"/>
</linearGradient>
<linearGradient id="paint8_linear_1_1263" x1="24.5919" y1="7.20247" x2="24.5919" y2="12.1887" gradientUnits="userSpaceOnUse">
<stop stop-color="white"/>
<stop offset="1" stop-color="#E2EDF2"/>
</linearGradient>
<linearGradient id="paint9_linear_1_1263" x1="32.9804" y1="25.533" x2="16.3633" y2="8.91533" gradientUnits="userSpaceOnUse">
<stop stop-color="#61DB99" stop-opacity="0"/>
<stop offset="1" stop-color="#009E74"/>
</linearGradient>
<linearGradient id="paint10_linear_1_1263" x1="24.5909" y1="13.1997" x2="24.5909" y2="17.4613" gradientUnits="userSpaceOnUse">
<stop stop-color="white"/>
<stop offset="1" stop-color="#E2EDF2"/>
</linearGradient>
<linearGradient id="paint11_linear_1_1263" x1="27.3399" y1="18.6596" x2="20.4482" y2="11.7672" gradientUnits="userSpaceOnUse">
<stop stop-color="#F2F2F2"/>
<stop offset="1" stop-color="#C3C3C3"/>
</linearGradient>
<linearGradient id="paint12_linear_1_1263" x1="17.141" y1="18.5327" x2="24.9953" y2="26.387" gradientUnits="userSpaceOnUse">
<stop stop-color="#FF4C54"/>
<stop offset="1" stop-color="#BE3F45"/>
</linearGradient>
<linearGradient id="paint13_linear_1_1263" x1="24.1583" y1="22.2533" x2="15.8749" y2="13.9699" gradientUnits="userSpaceOnUse">
<stop stop-color="#BE3F45" stop-opacity="0"/>
<stop offset="1" stop-color="#BE3F45"/>
</linearGradient>
<linearGradient id="paint14_linear_1_1263" x1="18.7567" y1="26.5336" x2="16.2332" y2="21.1722" gradientUnits="userSpaceOnUse">
<stop stop-color="#BE3F45" stop-opacity="0"/>
<stop offset="1" stop-color="#BE3F45"/>
</linearGradient>
<linearGradient id="paint15_linear_1_1263" x1="15.9992" y1="12.4121" x2="15.9992" y2="18.7417" gradientUnits="userSpaceOnUse">
<stop stop-color="white"/>
<stop offset="1" stop-color="#E2EDF2"/>
</linearGradient>
<linearGradient id="paint16_linear_1_1263" x1="21.6681" y1="28.8635" x2="18.5365" y2="25.7319" gradientUnits="userSpaceOnUse">
<stop stop-color="#BE3F45" stop-opacity="0"/>
<stop offset="1" stop-color="#BE3F45"/>
</linearGradient>
<linearGradient id="paint17_linear_1_1263" x1="15.9992" y1="20.0251" x2="15.9992" y2="25.4355" gradientUnits="userSpaceOnUse">
<stop stop-color="white"/>
<stop offset="1" stop-color="#E2EDF2"/>
</linearGradient>
<linearGradient id="paint18_linear_1_1263" x1="18.5956" y1="24.7726" x2="10.9101" y2="17.0878" gradientUnits="userSpaceOnUse">
<stop stop-color="#F2F2F2"/>
<stop offset="1" stop-color="#C3C3C3"/>
</linearGradient>
<linearGradient id="paint19_linear_1_1263" x1="14.6236" y1="22.6499" x2="16.8736" y2="24.8999" gradientUnits="userSpaceOnUse">
<stop stop-color="#FFF465"/>
<stop offset="1" stop-color="#FFE600"/>
</linearGradient>
<linearGradient id="paint20_linear_1_1263" x1="19.1583" y1="26.9434" x2="13.4436" y2="21.228" gradientUnits="userSpaceOnUse">
<stop stop-color="#FFF465"/>
<stop offset="1" stop-color="#FFE600"/>
</linearGradient>
<linearGradient id="paint21_linear_1_1263" x1="15.2556" y1="22.9326" x2="17.6618" y2="25.3388" gradientUnits="userSpaceOnUse">
<stop stop-color="#FFF465"/>
<stop offset="1" stop-color="#FFE600"/>
</linearGradient>
</defs>
</svg>
