<svg width="32" height="33" viewBox="0 0 32 33" fill="none" xmlns="http://www.w3.org/2000/svg">
<g clip-path="url(#clip0_1_1551)">
<path d="M28.211 17.8052L27.4939 18.5616C26.9522 19.1329 26.6972 19.9179 26.7996 20.6985L26.9352 21.731C27.1159 23.1083 26.187 24.3861 24.8211 24.639L23.7985 24.8283C23.023 24.9719 22.3538 25.4583 21.978 26.1517L21.4842 27.0625C20.8214 28.2852 19.3167 28.774 18.062 28.1743L17.1271 27.7274C16.4148 27.3871 15.5868 27.3871 14.8747 27.7274L13.9399 28.1743C12.6851 28.774 11.1804 28.2852 10.5176 27.0625L10.0238 26.1517C9.6479 25.4583 8.97878 24.9719 8.20325 24.8283L7.1807 24.639C5.8148 24.3861 4.88586 23.1083 5.06663 21.731L5.20216 20.6985C5.30462 19.9181 5.04956 19.133 4.50794 18.5617L3.79064 17.8052C2.83541 16.7976 2.83541 15.2188 3.79064 14.2113L4.50782 13.4548C5.04943 12.8836 5.30449 12.0985 5.20203 11.318L5.0665 10.2854C4.88573 8.90818 5.81467 7.63031 7.18057 7.37745L8.20313 7.18815C8.97866 7.04459 9.64783 6.55819 10.0237 5.86479L10.5175 4.95392C11.1803 3.73127 12.6849 3.24249 13.9397 3.8422L14.8746 4.28901C15.5868 4.6294 16.4148 4.6294 17.127 4.28901L18.0618 3.8422C19.3166 3.24249 20.8212 3.73127 21.4841 4.95392L21.9779 5.86479C22.3538 6.55819 23.0229 7.04459 23.7984 7.18815L24.821 7.37745C26.1869 7.63031 27.1158 8.90812 26.9351 10.2854L26.7995 11.3179C26.6971 12.0984 26.9521 12.8835 27.4937 13.4548L28.2109 14.2112C29.1663 15.2188 29.1663 16.7976 28.211 17.8052Z" fill="url(#paint0_linear_1_1551)"/>
<path d="M16.001 25.9106C21.4693 25.9106 25.9023 21.4776 25.9023 16.0093C25.9023 10.5409 21.4693 6.10791 16.001 6.10791C10.5326 6.10791 6.09961 10.5409 6.09961 16.0093C6.09961 21.4776 10.5326 25.9106 16.001 25.9106Z" fill="url(#paint1_linear_1_1551)"/>
<path d="M6.09961 16.0082C6.09961 21.4765 10.5326 25.9095 16.001 25.9095C21.4693 25.9095 25.9023 21.4765 25.9023 16.0082C25.9023 15.9573 25.9011 15.9067 25.9004 15.856H6.10155C6.1008 15.9067 6.09961 15.9573 6.09961 16.0082Z" fill="url(#paint2_linear_1_1551)"/>
<path d="M16.0004 0.00830078C15.4661 0.00830078 15.0331 0.441368 15.0331 0.975516V2.98681C15.0331 3.52102 15.4662 3.95403 16.0004 3.95403C16.5346 3.95403 16.9676 3.52096 16.9676 2.98681V0.975516C16.9676 0.441368 16.5346 0.00830078 16.0004 0.00830078Z" fill="url(#paint3_linear_1_1551)"/>
<path d="M16.0004 32.0087C15.4661 32.0087 15.0331 31.5756 15.0331 31.0415V29.0302C15.0331 28.496 15.4662 28.063 16.0004 28.063C16.5346 28.063 16.9676 28.4961 16.9676 29.0302V31.0415C16.9676 31.5756 16.5346 32.0087 16.0004 32.0087Z" fill="url(#paint4_linear_1_1551)"/>
<path d="M25.3431 3.0185C24.9094 2.7066 24.305 2.80529 23.9931 3.23899L22.8188 4.87187C22.5069 5.30556 22.6056 5.90992 23.0393 6.22183C23.473 6.53373 24.0773 6.43503 24.3892 6.00134L25.5636 4.36846C25.8755 3.93477 25.7768 3.33041 25.3431 3.0185Z" fill="url(#paint5_linear_1_1551)"/>
<path d="M6.65842 28.9975C6.22473 28.6856 6.12603 28.0811 6.43794 27.6475L7.61227 26.0146C7.92418 25.5809 8.5286 25.4822 8.96223 25.7941C9.39593 26.106 9.49463 26.7105 9.18272 27.1441L8.00838 28.777C7.69648 29.2107 7.09205 29.3094 6.65842 28.9975Z" fill="url(#paint6_linear_1_1551)"/>
<path d="M31.1682 10.9181C30.9982 10.4116 30.4499 10.1389 29.9435 10.3088L28.0367 10.9487C27.5303 11.1187 27.2575 11.667 27.4275 12.1735C27.5974 12.6799 28.1458 12.9526 28.6522 12.7827L30.5589 12.1427C31.0654 11.9728 31.3381 11.4245 31.1682 10.9181Z" fill="url(#paint7_linear_1_1551)"/>
<path d="M0.831784 21.0995C0.661807 20.5931 0.93456 20.0448 1.44098 19.8748L3.34774 19.2349C3.85415 19.0649 4.40248 19.3376 4.57246 19.8441C4.74243 20.3505 4.46968 20.8988 3.96327 21.0688L2.05651 21.7088C1.55009 21.8787 1.00176 21.6059 0.831784 21.0995Z" fill="url(#paint8_linear_1_1551)"/>
<path d="M6.65842 3.0185C7.09212 2.7066 7.69648 2.80529 8.00838 3.23899L9.18272 4.87187C9.49463 5.30556 9.39593 5.90992 8.96223 6.22183C8.52854 6.53373 7.92418 6.43503 7.61227 6.00134L6.43794 4.36846C6.12603 3.93477 6.22473 3.33041 6.65842 3.0185Z" fill="url(#paint9_linear_1_1551)"/>
<path d="M25.3431 28.9972C25.7768 28.6853 25.8755 28.0809 25.5636 27.6473L24.3892 26.0144C24.0773 25.5807 23.4729 25.482 23.0393 25.7939C22.6056 26.1058 22.5069 26.7102 22.8188 27.1439L23.9931 28.7767C24.305 29.2104 24.9095 29.3091 25.3431 28.9972Z" fill="url(#paint10_linear_1_1551)"/>
<path d="M0.831754 10.9181C1.00173 10.4116 1.55006 10.1389 2.05648 10.3088L3.96324 10.9487C4.46965 11.1187 4.7424 11.667 4.57243 12.1735C4.40245 12.6799 3.85412 12.9526 3.34771 12.7827L1.44095 12.1427C0.934593 11.9728 0.66184 11.4245 0.831754 10.9181Z" fill="url(#paint11_linear_1_1551)"/>
<path d="M31.1682 21.0993C31.3381 20.5929 31.0654 20.0445 30.559 19.8746L28.6522 19.2346C28.1458 19.0646 27.5975 19.3374 27.4275 19.8438C27.2575 20.3502 27.5303 20.8986 28.0367 21.0685L29.9435 21.7085C30.4499 21.8784 30.9982 21.6057 31.1682 21.0993Z" fill="url(#paint12_linear_1_1551)"/>
<path d="M23.7988 24.8282L24.8213 24.6389C26.1872 24.386 27.1162 23.1082 26.9354 21.7309L26.7999 20.6984C26.7339 20.1961 26.8169 19.6923 27.0282 19.2443L17.1671 9.3833L11.8809 16.7977L14.8456 19.7624L15.1111 22.8478L20.3961 28.1328C20.843 27.9001 21.2272 27.5368 21.4844 27.0624L21.9782 26.1515C22.3541 25.4582 23.0233 24.9718 23.7988 24.8282Z" fill="url(#paint13_linear_1_1551)"/>
<path d="M19.7147 15.0506H17.8566C17.5331 15.0506 17.2709 14.7883 17.2709 14.4649V9.71622C17.2709 9.13526 16.5163 8.90869 16.1963 9.39358L11.799 16.056C11.542 16.4455 11.8213 16.9645 12.2879 16.9645H14.1459C14.4694 16.9645 14.7317 17.2267 14.7317 17.5502V22.2989C14.7317 22.8798 15.4863 23.1064 15.8063 22.6215L20.2035 15.959C20.4606 15.5696 20.1813 15.0506 19.7147 15.0506Z" fill="url(#paint14_linear_1_1551)"/>
<path d="M20.2045 15.9583L15.8072 22.6208C15.6384 22.8767 15.3484 22.9344 15.1121 22.8465L16.9563 17.1454C17.1121 16.6638 16.753 16.1702 16.2468 16.1702H15.7462C15.2433 16.1702 14.8846 15.6826 15.0344 15.2025L16.9143 9.17627C17.115 9.25972 17.2718 9.45103 17.2718 9.71563V14.4643C17.2718 14.7877 17.5339 15.0502 17.8576 15.0502H19.7156C20.182 15.0501 20.4615 15.5688 20.2045 15.9583Z" fill="url(#paint15_linear_1_1551)"/>
<path d="M14.7324 18.9146V22.2994C14.7324 22.8804 15.4871 23.1069 15.8071 22.622L18.254 18.9146H14.7324Z" fill="url(#paint16_linear_1_1551)"/>
</g>
<defs>
<linearGradient id="paint0_linear_1_1551" x1="5.50747" y1="5.51486" x2="28.3248" y2="28.3322" gradientUnits="userSpaceOnUse">
<stop stop-color="#FEE97D"/>
<stop offset="1" stop-color="#FAC600"/>
</linearGradient>
<linearGradient id="paint1_linear_1_1551" x1="10.5262" y1="10.5345" x2="18.6604" y2="18.6687" gradientUnits="userSpaceOnUse">
<stop stop-color="#FEE97D"/>
<stop offset="1" stop-color="#FAC600"/>
</linearGradient>
<linearGradient id="paint2_linear_1_1551" x1="16.001" y1="17.4782" x2="16.001" y2="27.3256" gradientUnits="userSpaceOnUse">
<stop stop-color="#FAC600" stop-opacity="0"/>
<stop offset="0.6899" stop-color="#D68C3D" stop-opacity="0.69"/>
<stop offset="1" stop-color="#C5715A"/>
</linearGradient>
<linearGradient id="paint3_linear_1_1551" x1="15.1337" y1="1.98113" x2="17.82" y2="1.98113" gradientUnits="userSpaceOnUse">
<stop stop-color="#FEE97D"/>
<stop offset="1" stop-color="#FAC600"/>
</linearGradient>
<linearGradient id="paint4_linear_1_1551" x1="15.1337" y1="30.0359" x2="17.82" y2="30.0359" gradientUnits="userSpaceOnUse">
<stop stop-color="#FEE97D"/>
<stop offset="1" stop-color="#FAC600"/>
</linearGradient>
<linearGradient id="paint5_linear_1_1551" x1="23.5" y1="4.15904" x2="25.6813" y2="5.72789" gradientUnits="userSpaceOnUse">
<stop stop-color="#FEE97D"/>
<stop offset="1" stop-color="#FAC600"/>
</linearGradient>
<linearGradient id="paint6_linear_1_1551" x1="7.15022" y1="26.8934" x2="9.3316" y2="28.4622" gradientUnits="userSpaceOnUse">
<stop stop-color="#FEE97D"/>
<stop offset="1" stop-color="#FAC600"/>
</linearGradient>
<linearGradient id="paint7_linear_1_1551" x1="28.9958" y1="10.6888" x2="29.8501" y2="13.2354" gradientUnits="userSpaceOnUse">
<stop stop-color="#FEE97D"/>
<stop offset="1" stop-color="#FAC600"/>
</linearGradient>
<linearGradient id="paint8_linear_1_1551" x1="2.39134" y1="19.6587" x2="3.2456" y2="22.2054" gradientUnits="userSpaceOnUse">
<stop stop-color="#FEE97D"/>
<stop offset="1" stop-color="#FAC600"/>
</linearGradient>
<linearGradient id="paint9_linear_1_1551" x1="8.48819" y1="4.15934" x2="6.30685" y2="5.72818" gradientUnits="userSpaceOnUse">
<stop stop-color="#FEE97D"/>
<stop offset="1" stop-color="#FAC600"/>
</linearGradient>
<linearGradient id="paint10_linear_1_1551" x1="24.8379" y1="26.8934" x2="22.6565" y2="28.4623" gradientUnits="userSpaceOnUse">
<stop stop-color="#FEE97D"/>
<stop offset="1" stop-color="#FAC600"/>
</linearGradient>
<linearGradient id="paint11_linear_1_1551" x1="3.00987" y1="10.6987" x2="2.15561" y2="13.2454" gradientUnits="userSpaceOnUse">
<stop stop-color="#FEE97D"/>
<stop offset="1" stop-color="#FAC600"/>
</linearGradient>
<linearGradient id="paint12_linear_1_1551" x1="29.6143" y1="19.6684" x2="28.76" y2="22.2151" gradientUnits="userSpaceOnUse">
<stop stop-color="#FEE97D"/>
<stop offset="1" stop-color="#FAC600"/>
</linearGradient>
<linearGradient id="paint13_linear_1_1551" x1="24.2263" y1="22.3711" x2="10.6734" y2="13.3776" gradientUnits="userSpaceOnUse">
<stop stop-color="#F6A96C" stop-opacity="0"/>
<stop offset="1" stop-color="#C5715A"/>
</linearGradient>
<linearGradient id="paint14_linear_1_1551" x1="13.4533" y1="13.4595" x2="19.6792" y2="19.6854" gradientUnits="userSpaceOnUse">
<stop stop-color="#EAF6FF"/>
<stop offset="1" stop-color="#B3DAFE"/>
</linearGradient>
<linearGradient id="paint15_linear_1_1551" x1="20.6045" y1="16.5331" x2="13.577" y2="15.7488" gradientUnits="userSpaceOnUse">
<stop stop-color="#D8ECFE" stop-opacity="0"/>
<stop offset="0.7867" stop-color="#9BD1FE" stop-opacity="0.787"/>
<stop offset="1" stop-color="#8AC9FE"/>
</linearGradient>
<linearGradient id="paint16_linear_1_1551" x1="16.4932" y1="19.2394" x2="16.4932" y2="22.1739" gradientUnits="userSpaceOnUse">
<stop stop-color="#D8ECFE" stop-opacity="0"/>
<stop offset="0.7867" stop-color="#9BD1FE" stop-opacity="0.787"/>
<stop offset="1" stop-color="#8AC9FE"/>
</linearGradient>
<clipPath id="clip0_1_1551">
<rect width="32" height="32" fill="white" transform="translate(0 0.00830078)"/>
</clipPath>
</defs>
</svg>
