<svg width="24" height="24" viewBox="0 0 24 24" fill="none" xmlns="http://www.w3.org/2000/svg">
<path d="M18.6599 12.6409C18.6492 10.6809 19.5358 9.2016 21.3302 8.11215C20.3261 6.67557 18.8095 5.88518 16.8068 5.73031C14.9109 5.58077 12.8388 6.83578 12.0805 6.83578C11.2794 6.83578 9.4423 5.78371 8.00038 5.78371C5.02041 5.83178 1.85352 8.16021 1.85352 12.8972C1.85352 14.2964 2.10986 15.7419 2.62254 17.2336C3.30612 19.1936 5.77341 24 8.34751 23.9199C9.6933 23.8878 10.6439 22.9639 12.3956 22.9639C14.0938 22.9639 14.975 23.9199 16.4757 23.9199C19.0711 23.8825 21.3035 19.514 21.955 17.5487C18.473 15.9092 18.6599 12.7423 18.6599 12.6409ZM15.6372 3.87183C17.0952 2.14152 16.9617 0.566088 16.9189 0C15.6319 0.0747663 14.1419 0.875834 13.2928 1.86382C12.3582 2.92123 11.8081 4.22964 11.9256 5.7036C13.3195 5.81041 14.5905 5.09479 15.6372 3.87183Z" fill="black"/>
</svg>
